# Blender 4.3.2
# www.blender.org
o low_poly_cat_flat.001
v -11.347954 20.241520 69.419022
v -4.232269 11.021355 61.107544
v -16.721481 16.066479 63.738403
v -8.976387 16.101879 39.501442
v -1.557404 11.175125 49.239746
v -21.026344 14.501247 54.108582
v -24.292995 13.294090 44.623367
v -0.481789 2.754974 92.223679
v 0.101662 4.465416 88.135941
v -1.693489 9.054756 84.678864
v 12.846313 17.851437 23.941162
v 25.111221 10.969528 24.479744
v 15.361191 17.753021 15.057625
v 25.837280 4.989159 29.613571
v 29.951401 7.397858 20.466743
v -1.079208 11.912979 75.802948
v -9.553036 18.332279 85.046143
v -20.740162 15.824802 3.490593
v -20.155590 12.284599 0.000000
v -19.801781 11.704369 0.000000
v -21.069954 13.784107 0.000000
v -21.088013 13.813721 0.000000
v -13.825928 15.308601 33.215530
v -3.358719 14.685608 25.964272
v 3.181671 8.655258 49.721619
v -6.401085 5.985359 92.780350
v -12.237198 8.329041 95.125168
v -0.231766 -0.651939 65.819473
v 4.000710 -1.326218 58.325485
v -21.112080 13.853188 0.000000
v -7.578331 -11.470566 75.834824
v -4.847687 0.112740 96.542969
v -17.780670 -5.517860 92.303436
v -19.062088 22.393799 86.372177
v -18.878647 11.839729 94.481583
v -17.152203 23.908131 84.371490
v 23.651993 13.310738 13.541489
v -20.268734 28.986652 79.962387
v -12.757370 26.223644 73.124863
v 4.084099 18.428726 13.801277
v 2.229538 12.189667 20.138351
v -22.020435 15.342846 0.000000
v -21.362328 14.263584 0.000000
v -2.158363 5.898376 102.168198
v -5.313408 6.474106 104.737778
v 19.235748 8.937447 29.751076
v 0.288567 11.097809 38.662727
v 4.756454 12.541527 34.238129
v -0.560501 12.085251 27.014435
v 15.556091 -18.594757 47.448975
v 29.767395 -13.192436 36.052597
v 21.496147 -3.943634 48.391876
v -1.669060 -11.129402 57.405304
v -22.123508 16.329964 0.000000
v -22.439903 16.030754 0.000000
v 5.965004 3.951752 53.424484
v 14.708977 8.214027 41.254852
v -22.046249 28.487812 72.312653
v -21.550385 16.871967 0.000000
v -21.909763 16.532108 0.000000
v -1.696365 20.249546 15.475075
v 14.406631 19.793373 12.125473
v -21.311287 17.098080 0.000000
v -21.477665 16.940739 0.000000
v -21.069954 17.326305 0.000000
v -20.499062 17.866199 0.000000
v -19.933453 18.401093 0.000000
v -19.686832 18.634315 0.000000
v 1.383354 -23.633492 39.961006
v -10.178833 -13.206429 60.448990
v 20.133255 -25.917313 27.672577
v 10.297981 11.488693 27.003998
v -19.437912 18.869717 0.000008
v 13.257545 24.133812 10.730949
v -18.874611 19.402431 0.000008
v 26.054100 19.929199 12.337616
v -17.805874 19.683434 0.000008
v -18.659626 19.605740 0.000000
v -11.401196 5.008659 97.268784
v 33.162155 -6.129181 29.994713
v -17.565796 19.705276 0.000008
v -12.207626 13.856956 6.157700
v -16.173836 19.713036 0.000008
v -16.388603 19.812401 0.000000
v -15.715919 19.501175 0.000008
v -14.541794 18.957947 0.000008
v -6.306587 12.776299 3.631653
v -13.619808 18.401093 0.000000
v -13.882393 18.652866 0.000000
v -12.909752 17.720261 0.000008
v 33.672112 -0.568420 11.396057
v -12.025047 16.871967 0.000000
v -11.277714 16.155396 0.000000
v -10.430286 15.342846 0.000000
v -11.245693 16.124691 0.000000
v -9.645672 14.590523 0.000000
v -10.290787 15.209087 0.000000
v -8.835526 13.813721 0.000000
v -8.013634 13.025658 0.000000
v -7.333206 12.373238 0.000000
v -7.981575 12.994919 0.000000
v -7.240761 12.284599 0.000000
v -7.007324 12.284599 0.000000
v -7.124855 12.173454 0.000000
v -26.071484 -8.944748 80.231354
v -22.684490 -11.457596 54.704971
v -31.022770 5.239891 93.098099
v -33.377487 4.056358 91.538452
v -34.532967 6.293770 103.875992
v 40.238152 8.897690 7.382515
v 32.959526 13.091187 12.970291
v -9.272881 -16.281433 48.442596
v 1.058479 -29.359558 16.386536
v -6.695908 12.579094 0.000000
v -6.846550 12.436638 0.000000
v -6.381592 12.876335 0.000000
v -6.559410 12.708183 0.000000
v -5.883675 13.347198 0.000000
v -6.256195 12.994919 0.000000
v -7.631180 14.901424 13.891678
v -5.390350 13.813721 0.000000
v -5.071434 14.115307 0.000000
v -4.749550 14.419704 0.000000
v -4.790413 14.381065 0.000000
v -4.259201 14.883415 0.000000
v -3.773376 15.342846 0.000000
v -3.446968 15.651520 0.000000
v -3.117516 15.963078 0.000000
v -3.402313 15.693745 0.000000
v -2.634727 16.419628 0.000000
v -3.021416 16.053951 0.000000
v -2.156403 16.871967 0.000000
v -2.619202 16.434311 0.000000
v -28.317570 -7.136536 66.352020
v -33.371414 3.109283 68.658417
v -28.429619 -3.093681 57.620605
v -1.822495 17.187737 0.000000
v -1.485474 17.506443 0.000000
v -28.946369 6.265228 43.417831
v -1.010254 17.955841 0.000000
v -1.252426 17.726833 0.000000
v -0.539429 18.401093 0.000000
v -0.198021 18.723949 0.000000
v -2.853966 -23.465073 26.800156
v 0.146568 19.049812 0.000008
v 0.041924 18.950851 0.000000
v -3.237617 22.121250 7.885002
v 0.524857 19.575783 0.000008
v 0.252586 19.150074 0.000000
v -27.567120 18.588428 82.235016
v -30.701546 16.096397 72.778107
v -34.132172 10.030449 78.207550
v -30.005535 8.330475 87.631119
v -37.285763 2.220390 90.783096
v -20.817028 -12.970665 38.000237
v 0.751541 19.930214 0.000008
v 1.136383 20.531937 0.000008
v 1.729515 21.459335 0.000008
v 1.747910 21.488098 0.000008
v 1.778603 21.536095 0.000008
v 2.359436 22.444260 0.000008
v 2.707489 22.988461 0.000008
v 2.970963 23.400421 0.000008
v 2.840698 23.196743 0.000000
v 3.410645 24.087891 0.000008
v 3.097504 23.598267 0.000000
v 3.582489 24.356579 0.000008
v 3.433990 24.124390 0.000000
v -25.188320 8.098434 94.015915
v -26.254768 -1.197144 94.811172
v 3.685463 24.517582 0.000008
v -36.078777 2.841576 101.385208
v -27.374290 -6.370789 40.337234
v 4.441391 25.080959 0.000008
v 4.123322 24.859238 0.000000
v -35.562534 3.833054 82.273727
v 5.042686 25.500095 0.000008
v 4.305489 25.612492 2.063538
v 5.510818 25.608097 0.000008
v 5.278427 25.664425 0.000000
v 6.674728 25.325989 0.000008
v -21.046249 2.688225 31.249954
v -10.487663 -12.378654 28.238899
v 7.712387 25.074478 0.000008
v 7.084007 25.226788 0.000000
v 8.306770 24.930416 0.000008
v 9.913963 24.540859 0.000008
v 9.612778 24.613865 0.000000
v 9.938812 24.534840 0.000008
v 10.010010 24.517582 0.000008
v -10.897835 -12.104095 16.099312
v -10.126118 -20.980156 17.420242
v 11.570847 24.139267 0.000008
v 10.423294 24.417408 0.000000
v 12.115532 24.007244 0.000008
v 7.365562 27.757305 5.545219
v 13.202888 23.886425 0.000008
v 12.488907 23.916748 0.000000
v 13.908508 23.856461 0.000008
v 14.834930 23.817116 0.000008
v 15.618034 23.783859 0.000008
v 16.466965 23.747807 0.000008
v 17.327560 23.711258 0.000008
v 18.099007 23.678497 0.000008
v 17.730377 23.694153 0.000000
v 19.303963 23.388615 0.000008
v 19.180595 23.425030 0.000000
v 19.731049 23.262539 0.000008
v 20.659485 22.988461 0.000008
v -16.413010 5.506378 25.866440
v 21.363091 22.780754 0.000008
v -12.577179 13.978180 16.157967
v 21.686752 22.685211 0.000008
v 22.995125 22.298973 0.000008
v 24.069534 21.981808 0.000008
v 24.627174 21.817192 0.000008
v 25.839409 21.459335 0.000008
v 28.366203 21.302246 3.866646
v 26.259209 21.364128 0.000008
v 26.022568 21.405266 0.000000
v 26.383972 21.342434 0.000008
v 26.270302 21.362198 0.000000
v 27.891243 21.080399 0.000008
v 28.387833 20.994068 0.000008
v 28.602112 20.956814 0.000008
v 34.596405 20.228588 3.986755
v 29.523293 20.300655 0.000008
v 29.370903 20.413342 0.000000
v 30.024261 19.930214 0.000008
v 31.155327 19.093842 0.000008
v 30.681412 19.444283 0.000000
v 32.092163 18.401093 0.000000
v 32.787369 17.887020 0.000000
v 33.573586 16.871967 0.000000
v 33.347847 17.472569 0.000000
v 19.982933 23.106277 8.042038
v 23.926971 22.181202 7.358849
v 34.000946 15.734921 0.000000
v 33.843155 16.154743 0.000000
v 34.148308 15.342846 0.000000
v 34.419411 14.621544 0.000000
v 34.723030 13.813721 0.000000
v 34.888062 13.374619 0.000000
v 35.297752 12.284599 0.000000
v 35.775185 11.014313 0.000000
v 35.872475 10.755478 0.000000
v 36.051453 10.279282 0.000000
v 36.447197 9.226349 0.000000
v 36.662308 8.654015 0.000000
v 39.619270 3.880775 2.029564
v 37.052544 7.697227 0.000000
v 36.934715 7.969528 0.000000
v 37.683487 6.239136 0.000000
v 37.714226 6.168106 0.000000
v 37.735184 6.119667 0.000000
v 38.375908 4.638985 0.000000
v 38.033607 5.430023 0.000000
v 38.848068 3.547836 0.000000
v 39.037598 3.109856 0.000000
v 38.917366 3.387695 0.000000
v 38.941399 1.931267 0.000000
v 39.020020 2.828064 0.000000
v 39.526230 -6.762794 5.392479
v 38.910667 1.580734 0.000000
v 38.939880 1.913994 0.000000
v 38.817520 0.518211 0.000000
v 38.776619 0.051613 0.000000
v 38.693642 -0.894844 0.000000
v 38.642563 -1.477509 0.000000
v 38.569771 -2.307899 0.000000
v 38.382645 -3.006630 0.000000
v 38.553833 -2.489708 0.000000
v 38.217079 -3.506577 0.000000
v 37.876251 -4.535759 0.000000
v 38.117142 -3.808350 0.000000
v 37.830597 -4.673592 0.000000
v 37.683487 -5.117805 0.000000
v 37.701469 -5.063507 0.000000
v 37.444122 -5.840607 0.000000
v 37.369850 -6.064880 0.000000
v 37.057648 -7.007622 0.000000
v 37.129730 -6.789948 0.000000
v 36.863457 -7.594002 0.000000
v 36.671165 -8.174637 0.000000
v 36.199829 -9.123123 0.000000
v 36.272240 -9.031120 0.000000
v 36.136856 -9.203148 0.000000
v 36.051453 -9.311676 0.000000
v 35.444206 -10.083298 0.000000
v 35.883461 -9.525139 0.000000
v 34.996460 -10.652252 0.000000
v 34.751556 -10.963455 0.000000
v 34.419411 -11.385513 0.000000
v 34.058907 -11.843605 0.000000
v 32.229187 -19.310669 14.855515
v 33.752533 -12.181374 0.000000
v 33.911522 -12.030884 0.000000
v 33.272415 -12.635826 0.000000
v 33.306923 -12.603165 0.000000
v 32.787369 -13.094933 0.000000
v 32.460548 -13.404282 0.000000
v 32.137039 -13.710495 0.000000
v 31.648682 -14.172737 0.000000
v 31.155327 -14.639717 0.000000
v 31.363922 -14.442276 0.000000
v 30.836823 -14.941200 0.000000
v 30.521545 -15.239624 0.000000
v 30.024956 -15.709656 0.000008
v 29.523293 -16.184502 0.000000
v 29.213097 -16.478111 0.000000
v 29.314056 -16.382545 0.000000
v 28.906044 -16.768745 0.000000
v 28.401230 -17.246567 0.000000
v 28.808533 -16.861038 0.000000
v 27.891243 -17.729279 0.000000
v 28.329361 -17.314590 0.000000
v 27.589363 -18.015022 0.000000
v 27.290543 -18.297867 0.000000
v 26.777504 -18.783478 0.000000
v 26.259209 -19.196602 0.000000
v 26.442848 -19.100243 0.000000
v 25.827934 -19.422913 0.000000
v 26.140823 -19.258720 0.000000
v 25.057869 -19.826988 0.000000
v 24.781792 -19.971863 0.000000
v 23.043808 -23.370132 11.376053
v 24.627174 -20.201294 0.000000
v 24.742844 -19.992294 0.000000
v 24.206268 -20.961754 0.000000
v 24.625114 -20.205009 0.000000
v 20.361847 -28.178635 10.006554
v 23.115891 -21.356110 0.000000
v 23.372200 -21.315125 0.000000
v 23.012733 -21.372612 0.000000
v 22.995125 -21.375420 0.000000
v 21.618629 -21.595535 0.000000
v 21.363091 -21.636406 0.000000
v 21.558807 -21.605103 0.000000
v 20.224525 -21.818474 0.000000
v 20.361229 -21.796608 0.000000
v 19.731049 -21.897385 0.000000
v 18.830414 -22.041397 0.000000
v 18.099007 -22.158363 0.000000
v 17.436317 -22.264336 0.000000
v 16.466965 -22.419342 0.000000
v 16.906021 -22.349129 0.000000
v 16.042213 -22.487259 0.000000
v 16.350670 -22.437935 0.000000
v 14.834930 -22.680321 0.000000
v 14.648102 -22.710190 0.000000
v 13.553467 -22.885231 0.000000
v 13.253998 -22.933121 0.000000
v 13.202888 -22.941299 0.000000
v 11.859894 -23.156052 0.000000
v 12.253235 -23.093155 0.000000
v 11.570847 -23.202278 0.000000
v 10.465790 -23.378983 0.000000
v 9.938812 -23.463257 0.000000
v 9.071686 -23.601913 0.000000
v 8.306770 -23.724236 0.000000
v 8.329559 -23.720589 0.000000
v 7.654892 -23.803589 0.000000
v 8.040123 -23.766869 0.000000
v 6.674728 -23.897018 0.000000
v 6.173553 -23.944786 0.000000
v 6.234756 -28.544395 8.249664
v 5.042686 -23.900635 0.000000
v 5.257774 -24.032082 0.000000
v 3.465965 -22.937065 0.000000
v 4.042381 -23.289330 0.000000
v 3.410645 -22.903259 0.000000
v 3.424286 -22.911598 0.000000
v 3.381149 -22.885239 0.000000
v 1.778603 -21.905884 0.000000
v 0.878990 -21.356110 0.000000
v 0.146568 -20.908508 0.000000
v -6.267128 -18.773811 3.760780
v -1.088036 -20.199364 0.000000
v -0.957207 -20.233971 0.000000
v -1.485474 -20.094231 0.000000
v -2.495766 -19.826988 0.000000
v -3.117516 -19.662529 0.000000
v -3.362099 -19.597832 0.000000
v -3.345329 -19.602264 0.000000
v -4.749550 -19.230820 0.000000
v -4.608635 -19.268097 0.000000
v -5.636162 -18.996292 0.000000
v -6.381592 -18.799110 0.000000
v -7.910225 -18.394760 0.000000
v -6.838463 -18.678261 0.000000
v -8.013634 -18.367401 0.000000
v -8.276512 -18.297867 0.000000
v -9.645672 -17.972557 0.000000
v -9.417629 -17.996017 0.000000
v -10.035709 -17.932426 0.000000
v -11.277714 -17.804634 0.000000
v -10.208961 -17.914597 0.000000
v -11.869083 -17.743790 0.000000
v -12.934628 -17.771866 1.141701
v -12.909752 -17.581230 0.000000
v -12.901611 -17.637550 0.000000
v -13.027218 -16.768745 0.000000
v -13.010559 -16.883965 0.000000
v -13.045620 -16.641441 0.000000
v -13.248283 -15.239624 0.000000
v -13.301323 -14.872742 0.000000
v -13.469349 -13.710495 0.000000
v -13.557026 -13.104042 0.000000
v -13.690418 -12.181374 0.000000
v -13.812729 -11.335342 0.000000
v -14.175083 -9.266159 1.376282
v -13.833847 -10.652252 0.000000
v -13.820648 -11.280563 0.000000
v -13.852398 -9.769051 0.000000
v 26.200623 -19.227348 0.000000
v 35.888786 -9.518372 0.000000
v 36.471291 -8.778191 0.000000
v 39.043518 3.096169 0.000000
v 36.907684 8.031990 0.000000
v 36.872162 8.114075 0.000000
v 36.819519 8.235725 0.000000
v 30.341331 19.695755 0.000000
v 28.646339 20.949127 0.000000
v 12.242302 23.976521 0.000000
v 6.983253 25.251209 0.000000
v 6.950966 25.259033 0.000000
v -16.028320 10.775040 7.265160
v -18.130333 8.929962 0.000000
v -18.126648 8.923843 0.000000
v -18.015087 8.738670 0.000000
v -13.885162 -8.209229 0.000000
v -13.865963 -9.123123 0.000000
v -21.037193 1.859482 6.882774
v -19.429401 5.900879 0.000000
v -19.436142 5.900345 0.000000
v -19.437912 5.900208 0.000000
v -19.452354 5.899063 0.000000
v -19.602726 5.887192 0.000000
v -19.722767 5.878548 0.000000
v -20.320263 5.835548 0.000000
v -28.253456 3.444115 3.192764
v -26.001625 5.389877 0.000000
v -26.240280 5.368958 0.000000
v -26.701981 5.328484 0.000000
v -28.879570 5.006920 0.000000
v -28.886597 4.638985 0.000000
v -28.929901 2.371346 0.000000
v -28.937645 1.966042 0.000000
v -28.940605 1.811012 0.000000
v -28.945004 1.580734 0.000000
v -28.955315 1.040657 0.000000
v -28.958145 0.892448 0.000000
v -22.667850 -3.417549 5.341042
v -25.429329 -2.602234 0.000000
v -24.577225 -2.778778 0.000000
v -24.027500 -2.892670 0.000000
v -23.477463 -3.006630 0.000000
v -20.431213 -3.637772 0.000000
v -20.386440 -3.647049 0.000000
v -20.066380 -3.713356 0.000000
v -19.437912 -3.843567 0.000000
v -18.672775 -4.002090 0.000000
v -18.112911 -6.248573 9.734062
v -13.858738 -9.467232 0.000000
v -13.856869 -9.556084 0.000000
v -12.967655 -17.180725 0.000000
v -12.965618 -17.194824 0.000000
v -9.360504 -18.011131 0.000000
v 4.836052 -23.774353 0.000000
v 12.340118 -23.079262 0.000000
v 12.882675 -22.992500 0.000000
v -15.408413 -5.023209 0.000000
v -14.541794 -5.365028 0.000000
v -17.249840 -4.296898 0.000000
v -16.644260 -4.535759 0.000000
v -18.291046 -4.081177 0.000000
v -27.079605 -2.260323 0.000000
v -26.762791 -2.325966 0.000000
v -27.328438 -1.842705 0.000000
v -28.457150 0.051613 0.000000
v -15.186684 4.437798 13.467613
v 29.261688 21.204895 5.672806
v 24.050941 -21.242378 0.000000
v 18.359444 23.667439 0.000000
v -23.658108 5.595322 0.000000
v -23.717171 5.590141 0.000000
v -20.686855 5.809166 0.000000
v -28.877075 5.137802 0.000000
v 3.727516 24.583344 0.000000
v -15.849545 3.725021 4.322891
v -19.437916 11.100395 0.000000
v -18.335709 9.270866 0.000000
v -18.308891 9.226349 0.000000
v -17.589764 6.046150 0.000000
v -17.669029 6.039894 0.000000
v -19.246563 5.915314 0.000000
v -13.885204 -8.207130 0.000000
v -17.938763 8.255493 0.000000
v -17.918774 8.128952 0.000008
v -14.540009 -5.365730 0.000000
v -14.378887 -6.064880 0.000000
v -13.978844 -7.800804 0.000000
v -19.230114 10.755478 0.000000
v -18.960808 10.308456 0.000000
v -17.917675 8.121994 0.000008
v -17.858341 7.746384 0.000000
v -17.850574 7.697227 0.000000
v -17.805870 7.414238 0.000000
v -17.609028 6.168106 0.000000
v -17.805874 6.029083 0.000000
v -19.174210 5.921028 0.000000
v -21.069954 5.781593 0.000000
v -22.202473 5.700081 0.000000
v -22.701992 5.664131 0.000000
v -24.334034 5.536064 0.000000
v -25.209576 5.459312 0.000000
v -25.966076 5.392990 0.000000
v -27.598114 5.249924 0.000000
v -28.194386 5.197647 0.000000
v -28.892635 4.322746 0.000000
v -28.915802 3.109856 0.000000
v -28.921326 2.820503 0.000000
v -28.950016 1.318260 0.000000
v -27.598114 -1.390106 0.000000
v -27.546036 -1.477509 0.000000
v -27.480225 -1.587967 0.000000
v -26.672619 -2.344643 0.000000
v -26.643932 -2.350586 0.000000
v -25.966076 -2.491028 0.000000
v -24.334034 -2.829163 0.000000
v -22.701992 -3.167297 0.000000
v -22.481831 -3.212914 0.000000
v -21.069954 -3.505432 0.000000
v -17.805874 -4.181702 0.000000
v -16.173836 -4.721306 0.000000
v -15.831814 -4.856209 0.000000
v -14.334026 -6.259544 0.000000
v -14.026505 -7.594002 0.000000
v -27.598114 3.109856 0.000000
v -27.598114 1.580734 0.000000
v -27.598114 0.051613 0.000000
v -27.598114 4.638985 0.000000
v -25.966076 4.638985 0.000000
v -25.966076 3.109856 0.000000
v -25.966076 1.580734 0.000000
v -25.966076 0.051613 0.000000
v -25.966076 -1.477509 0.000000
v -24.334034 4.638985 0.000000
v -24.334034 3.109856 0.000000
v -24.334034 1.580734 0.000000
v -24.334034 0.051613 0.000000
v -24.334034 -1.477509 0.000000
v -22.701992 4.638985 0.000000
v -22.701992 3.109856 0.000000
v -22.701992 1.580734 0.000000
v -22.701992 0.051613 0.000000
v -22.701992 -1.477509 0.000000
v -22.701992 -3.006630 0.000000
v -21.069954 4.638985 0.000000
v -21.069954 3.109856 0.000000
v -21.069954 1.580734 0.000000
v -21.069954 0.051613 0.000000
v -21.069954 -1.477509 0.000000
v -21.069954 -3.006630 0.000000
v -19.437912 16.871967 0.000000
v -21.069954 16.871967 0.000000
v -19.437912 15.342846 0.000000
v -21.069954 15.342846 0.000000
v -19.437912 13.813721 0.000000
v -21.069954 13.813721 0.000000
v -19.437912 12.284599 0.000000
v -19.437912 4.638985 0.000000
v -19.437912 3.109856 0.000000
v -19.437912 1.580734 0.000000
v -19.437912 0.051613 0.000000
v -19.437912 -1.477509 0.000000
v -19.437912 -3.006630 0.000000
v -19.437912 18.401093 0.000000
v -17.805874 18.401093 0.000000
v -17.805874 16.871967 0.000000
v -17.805874 15.342846 0.000000
v -17.805874 13.813721 0.000000
v -17.805874 12.284599 0.000000
v -17.805874 10.755478 0.000000
v -17.805874 9.226349 0.000000
v -17.805874 4.638985 0.000000
v -17.805874 3.109856 0.000000
v -17.805874 1.580734 0.000000
v -17.805874 0.051613 0.000000
v -17.805874 -1.477509 0.000000
v -17.805874 -3.006630 0.000000
v -16.173836 18.401093 0.000000
v -16.173836 16.871967 0.000000
v -16.173836 15.342846 0.000000
v -16.173836 13.813721 0.000000
v -16.173836 12.284599 0.000000
v -16.173836 10.755478 0.000000
v -16.173836 9.226349 0.000000
v -16.173836 7.697227 0.000000
v -17.805874 7.697227 0.000000
v -16.173836 6.168106 0.000000
v -16.173836 4.638985 0.000000
v -16.173836 3.109856 0.000000
v -16.173836 1.580734 0.000000
v -16.173836 0.051613 0.000000
v -16.173836 -1.477509 0.000000
v -16.173836 -3.006630 0.000000
v -16.173836 -4.535759 0.000000
v -14.541794 18.401093 0.000000
v -14.541794 16.871967 0.000000
v -14.541794 15.342846 0.000000
v -14.541794 13.813721 0.000000
v -14.541794 12.284599 0.000000
v -14.541794 10.755478 0.000000
v -14.541794 9.226349 0.000000
v -14.541794 7.697227 0.000000
v -14.541794 6.168106 0.000000
v -14.541794 4.638985 0.000000
v -14.541794 3.109856 0.000000
v -14.541794 1.580734 0.000000
v -14.541794 0.051613 0.000000
v -14.541794 -1.477509 0.000000
v -14.541794 -3.006630 0.000000
v -14.541794 -4.535759 0.000000
v -12.909752 16.871967 0.000000
v -12.909752 15.342846 0.000000
v -12.909752 13.813721 0.000000
v -12.909752 12.284599 0.000000
v -12.909752 10.755478 0.000000
v -12.909752 9.226349 0.000000
v -12.909752 7.697227 0.000000
v -12.909752 6.168106 0.000000
v -12.909752 4.638985 0.000000
v -12.909752 3.109856 0.000000
v -12.909752 1.580734 0.000000
v -12.909752 0.051613 0.000000
v -12.909752 -1.477509 0.000000
v -12.909752 -3.006630 0.000000
v -12.909752 -4.535759 0.000000
v -12.909752 -6.064880 0.000000
v -12.909752 -7.594002 0.000000
v -12.909752 -13.710495 0.000000
v -12.909752 -15.239624 0.000000
v -12.909752 -16.768745 0.000000
v -11.277714 15.342846 0.000000
v -11.277714 13.813721 0.000000
v -11.277714 12.284599 0.000000
v -11.277714 10.755478 0.000000
v -11.277714 9.226349 0.000000
v -11.277714 7.697227 0.000000
v -11.277714 6.168106 0.000000
v -11.277714 4.638985 0.000000
v -11.277714 3.109856 0.000000
v -11.277714 1.580734 0.000000
v -11.277714 0.051613 0.000000
v -11.277714 -1.477509 0.000000
v -11.277714 -3.006630 0.000000
v -11.277714 -4.535759 0.000000
v -11.277714 -6.064880 0.000000
v -11.277714 -7.594002 0.000000
v -11.277714 -9.123123 0.000000
v -12.909752 -9.123123 0.000000
v -11.277714 -10.652252 0.000000
v -12.909752 -10.652252 0.000000
v -11.277714 -12.181374 0.000000
v -12.909752 -12.181374 0.000000
v -11.277714 -13.710495 0.000000
v -11.277714 -15.239624 0.000000
v -11.277714 -16.768745 0.000000
v -9.645672 13.813721 0.000000
v -9.645672 12.284599 0.000000
v -9.645672 10.755478 0.000000
v -9.645672 9.226349 0.000000
v -9.645672 7.697227 0.000000
v -9.645672 6.168106 0.000000
v -9.645672 4.638985 0.000000
v -9.645672 3.109856 0.000000
v -9.645672 1.580734 0.000000
v -9.645672 0.051613 0.000000
v -9.645672 -1.477509 0.000000
v -9.645672 -3.006630 0.000000
v -9.645672 -4.535759 0.000000
v -9.645672 -6.064880 0.000000
v -9.645672 -7.594002 0.000000
v -9.645672 -9.123123 0.000000
v -9.645672 -10.652252 0.000000
v -9.645672 -12.181374 0.000000
v -9.645672 -13.710495 0.000000
v -9.645672 -15.239624 0.000000
v -9.645672 -16.768745 0.000000
v -8.013634 12.284599 0.000000
v -8.013634 10.755478 0.000000
v -8.013634 9.226349 0.000000
v -8.013634 7.697227 0.000000
v -8.013634 6.168106 0.000000
v -8.013634 4.638985 0.000000
v -8.013634 3.109856 0.000000
v -8.013634 1.580734 0.000000
v -8.013634 0.051613 0.000000
v -8.013634 -1.477509 0.000000
v -8.013634 -3.006630 0.000000
v -8.013634 -4.535759 0.000000
v -8.013634 -6.064880 0.000000
v -8.013634 -7.594002 0.000000
v -8.013634 -9.123123 0.000000
v -8.013634 -10.652252 0.000000
v -8.013634 -12.181374 0.000000
v -8.013634 -13.710495 0.000000
v -8.013634 -15.239624 0.000000
v -8.013634 -16.768745 0.000000
v -8.013634 -18.297867 0.000000
v -6.381592 10.755478 0.000000
v -6.381592 9.226349 0.000000
v -6.381592 7.697227 0.000000
v -6.381592 6.168106 0.000000
v -6.381592 4.638985 0.000000
v -6.381592 3.109856 0.000000
v -6.381592 1.580734 0.000000
v -6.381592 0.051613 0.000000
v -6.381592 -1.477509 0.000000
v -6.381592 -3.006630 0.000000
v -6.381592 -4.535759 0.000000
v -6.381592 -6.064880 0.000000
v -6.381592 -7.594002 0.000000
v -6.381592 -9.123123 0.000000
v -6.381592 -10.652252 0.000000
v -6.381592 -12.181374 0.000000
v -6.381592 -13.710495 0.000000
v -6.381592 -15.239624 0.000000
v -6.381592 -16.768745 0.000000
v -6.381592 -18.297867 0.000000
v -4.749550 12.284599 0.000000
v -6.381592 12.284599 0.000000
v -4.749550 10.755478 0.000000
v -4.749550 9.226349 0.000000
v -4.749550 7.697227 0.000000
v -4.749550 6.168106 0.000000
v -4.749550 4.638985 0.000000
v -4.749550 3.109856 0.000000
v -4.749550 1.580734 0.000000
v -4.749550 0.051613 0.000000
v -4.749550 -1.477509 0.000000
v -4.749550 -3.006630 0.000000
v -4.749550 -4.535759 0.000000
v -4.749550 -6.064880 0.000000
v -4.749550 -7.594002 0.000000
v -4.749550 -9.123123 0.000000
v -4.749550 -10.652252 0.000000
v -4.749550 -12.181374 0.000000
v -4.749550 -13.710495 0.000000
v -4.749550 -15.239624 0.000000
v -4.749550 -16.768745 0.000000
v -4.749550 -18.297867 0.000000
v -3.117516 13.813721 0.000000
v -4.749550 13.813721 0.000000
v -3.117516 12.284599 0.000000
v -3.117516 10.755478 0.000000
v -3.117516 9.226349 0.000000
v -3.117516 7.697227 0.000000
v -3.117516 6.168106 0.000000
v -3.117516 4.638985 0.000000
v -3.117516 3.109856 0.000000
v -3.117516 1.580734 0.000000
v -3.117516 0.051613 0.000000
v -3.117516 -1.477509 0.000000
v -3.117516 -3.006630 0.000000
v -3.117516 -4.535759 0.000000
v -3.117516 -6.064880 0.000000
v -3.117516 -7.594002 0.000000
v -3.117516 -9.123123 0.000000
v -3.117516 -10.652252 0.000000
v -3.117516 -12.181374 0.000000
v -3.117516 -13.710495 0.000000
v -3.117516 -15.239624 0.000000
v -3.117516 -16.768745 0.000000
v -3.117516 -18.297867 0.000000
v -3.117516 15.342846 0.000000
v -1.485474 15.342846 0.000000
v -1.485474 13.813721 0.000000
v -1.485474 12.284599 0.000000
v -1.485474 10.755478 0.000000
v -1.485474 9.226349 0.000000
v -1.485474 7.697227 0.000000
v -1.485474 6.168106 0.000000
v -1.485474 4.638985 0.000000
v -1.485474 3.109856 0.000000
v -1.485474 1.580734 0.000000
v -1.485474 0.051613 0.000000
v -1.485474 -1.477509 0.000000
v -1.485474 -3.006630 0.000000
v -1.485474 -4.535759 0.000000
v -1.485474 -6.064880 0.000000
v -1.485474 -7.594002 0.000000
v -1.485474 -9.123123 0.000000
v -1.485474 -10.652252 0.000000
v -1.485474 -12.181374 0.000000
v -1.485474 -13.710495 0.000000
v -1.485474 -15.239624 0.000000
v -1.485474 -16.768745 0.000000
v -1.485474 -18.297867 0.000000
v -1.485474 -19.826988 0.000000
v 0.146568 16.871967 0.000000
v -1.485474 16.871967 0.000000
v 0.146568 15.342846 0.000000
v 0.146568 13.813721 0.000000
v 0.146568 12.284599 0.000000
v 0.146568 10.755478 0.000000
v 0.146568 9.226349 0.000000
v 0.146568 7.697227 0.000000
v 0.146568 6.168106 0.000000
v 0.146568 4.638985 0.000000
v 0.146568 3.109856 0.000000
v 0.146568 1.580734 0.000000
v 0.146568 0.051613 0.000000
v 0.146568 -1.477509 0.000000
v 0.146568 -3.006630 0.000000
v 0.146568 -4.535759 0.000000
v 0.146568 -6.064880 0.000000
v 0.146568 -7.594002 0.000000
v 0.146568 -9.123123 0.000000
v 0.146568 -10.652252 0.000000
v 0.146568 -12.181374 0.000000
v 0.146568 -13.710495 0.000000
v 0.146568 -15.239624 0.000000
v 0.146568 -16.768745 0.000000
v 0.146568 -18.297867 0.000000
v 0.146568 -19.826988 0.000000
v 1.778603 19.930214 0.000008
v 1.778603 18.401093 0.000000
v 0.146568 18.401093 0.000000
v 1.778603 16.871967 0.000000
v 1.778603 15.342846 0.000000
v 1.778603 13.813721 0.000000
v 1.778603 12.284599 0.000000
v 1.778603 10.755478 0.000000
v 1.778603 9.226349 0.000000
v 1.778603 7.697227 0.000000
v 1.778603 6.168106 0.000000
v 1.778603 4.638985 0.000000
v 1.778603 3.109856 0.000000
v 1.778603 1.580734 0.000000
v 1.778603 0.051613 0.000000
v 1.778603 -1.477509 0.000000
v 1.778603 -3.006630 0.000000
v 1.778603 -4.535759 0.000000
v 1.778603 -6.064880 0.000000
v 1.778603 -7.594002 0.000000
v 1.778603 -9.123123 0.000000
v 1.778603 -10.652252 0.000000
v 1.778603 -12.181374 0.000000
v 1.778603 -13.710495 0.000000
v 1.778603 -15.239624 0.000000
v 1.778603 -16.768745 0.000000
v 1.778603 -18.297867 0.000000
v 1.778603 -19.826988 0.000000
v 1.778603 -21.356110 0.000000
v 3.410645 21.459335 0.000008
v 1.778603 21.459335 0.000008
v 3.410645 19.930214 0.000008
v 3.410645 18.401093 0.000000
v 3.410645 16.871967 0.000000
v 3.410645 15.342846 0.000000
v 3.410645 13.813721 0.000000
v 3.410645 12.284599 0.000000
v 3.410645 10.755478 0.000000
v 3.410645 9.226349 0.000000
v 3.410645 7.697227 0.000000
v 3.410645 6.168106 0.000000
v 3.410645 4.638985 0.000000
v 3.410645 3.109856 0.000000
v 3.410645 1.580734 0.000000
v 3.410645 0.051613 0.000000
v 3.410645 -1.477509 0.000000
v 3.410645 -3.006630 0.000000
v 3.410645 -4.535759 0.000000
v 3.410645 -6.064880 0.000000
v 3.410645 -7.594002 0.000000
v 3.410645 -9.123123 0.000000
v 3.410645 -10.652252 0.000000
v 3.410645 -12.181374 0.000000
v 3.410645 -13.710495 0.000000
v 3.410645 -15.239624 0.000000
v 3.410645 -16.768745 0.000000
v 3.410645 -18.297867 0.000000
v 3.410645 -19.826988 0.000000
v 3.410645 -21.356110 0.000000
v 3.410645 -22.885239 0.000000
v 5.042686 22.988461 0.000008
v 3.410645 22.988461 0.000008
v 5.042686 21.459335 0.000008
v 5.042686 19.930214 0.000008
v 5.042686 18.401093 0.000000
v 5.042686 16.871967 0.000000
v 5.042686 15.342846 0.000000
v 5.042686 13.813721 0.000000
v 5.042686 12.284599 0.000000
v 5.042686 10.755478 0.000000
v 5.042686 9.226349 0.000000
v 5.042686 7.697227 0.000000
v 5.042686 6.168106 0.000000
v 5.042686 4.638985 0.000000
v 5.042686 3.109856 0.000000
v 5.042686 1.580734 0.000000
v 5.042686 0.051613 0.000000
v 5.042686 -1.477509 0.000000
v 5.042686 -3.006630 0.000000
v 5.042686 -4.535759 0.000000
v 5.042686 -6.064880 0.000000
v 5.042686 -7.594002 0.000000
v 5.042686 -9.123123 0.000000
v 5.042686 -10.652252 0.000000
v 5.042686 -12.181374 0.000000
v 5.042686 -13.710495 0.000000
v 5.042686 -15.239624 0.000000
v 5.042686 -16.768745 0.000000
v 5.042686 -18.297867 0.000000
v 5.042686 -19.826988 0.000000
v 5.042686 -21.356110 0.000000
v 5.042686 -22.885239 0.000000
v 5.042686 24.517582 0.000008
v 6.674728 24.517582 0.000008
v 6.674728 22.988461 0.000008
v 6.674728 21.459335 0.000008
v 6.674728 19.930214 0.000008
v 6.674728 18.401093 0.000000
v 6.674728 16.871967 0.000000
v 6.674728 15.342846 0.000000
v 6.674728 13.813721 0.000000
v 6.674728 12.284599 0.000000
v 6.674728 10.755478 0.000000
v 6.674728 9.226349 0.000000
v 6.674728 7.697227 0.000000
v 6.674728 6.168106 0.000000
v 6.674728 4.638985 0.000000
v 6.674728 3.109856 0.000000
v 6.674728 1.580734 0.000000
v 6.674728 0.051613 0.000000
v 6.674728 -1.477509 0.000000
v 6.674728 -3.006630 0.000000
v 6.674728 -4.535759 0.000000
v 6.674728 -6.064880 0.000000
v 6.674728 -7.594002 0.000000
v 6.674728 -9.123123 0.000000
v 6.674728 -10.652252 0.000000
v 6.674728 -12.181374 0.000000
v 6.674728 -13.710495 0.000000
v 6.674728 -15.239624 0.000000
v 6.674728 -16.768745 0.000000
v 6.674728 -18.297867 0.000000
v 6.674728 -19.826988 0.000000
v 6.674728 -21.356110 0.000000
v 6.674728 -22.885239 0.000000
v 8.306770 24.517582 0.000008
v 8.306770 22.988461 0.000008
v 8.306770 21.459335 0.000008
v 8.306770 19.930214 0.000008
v 8.306770 18.401093 0.000000
v 8.306770 16.871967 0.000000
v 8.306770 15.342846 0.000000
v 8.306770 13.813721 0.000000
v 8.306770 12.284599 0.000000
v 8.306770 10.755478 0.000000
v 8.306770 9.226349 0.000000
v 8.306770 7.697227 0.000000
v 8.306770 6.168106 0.000000
v 8.306770 4.638985 0.000000
v 8.306770 3.109856 0.000000
v 8.306770 1.580734 0.000000
v 8.306770 0.051613 0.000000
v 8.306770 -1.477509 0.000000
v 8.306770 -3.006630 0.000000
v 8.306770 -4.535759 0.000000
v 8.306770 -6.064880 0.000000
v 8.306770 -7.594002 0.000000
v 8.306770 -9.123123 0.000000
v 8.306770 -10.652252 0.000000
v 8.306770 -12.181374 0.000000
v 8.306770 -13.710495 0.000000
v 8.306770 -15.239624 0.000000
v 8.306770 -16.768745 0.000000
v 8.306770 -18.297867 0.000000
v 8.306770 -19.826988 0.000000
v 8.306770 -21.356110 0.000000
v 8.306770 -22.885239 0.000000
v 9.938812 24.517582 0.000008
v 9.938812 22.988461 0.000008
v 9.938812 21.459335 0.000008
v 9.938812 19.930214 0.000008
v 9.938812 18.401093 0.000000
v 9.938812 16.871967 0.000000
v 9.938812 15.342846 0.000000
v 9.938812 13.813721 0.000000
v 9.938812 12.284599 0.000000
v 9.938812 10.755478 0.000000
v 9.938812 9.226349 0.000000
v 9.938812 7.697227 0.000000
v 9.938812 6.168106 0.000000
v 9.938812 4.638985 0.000000
v 9.938812 3.109856 0.000000
v 9.938812 1.580734 0.000000
v 9.938812 0.051613 0.000000
v 9.938812 -1.477509 0.000000
v 9.938812 -3.006630 0.000000
v 9.938812 -4.535759 0.000000
v 9.938812 -6.064880 0.000000
v 9.938812 -7.594002 0.000000
v 9.938812 -9.123123 0.000000
v 9.938812 -10.652252 0.000000
v 9.938812 -12.181374 0.000000
v 9.938812 -13.710495 0.000000
v 9.938812 -15.239624 0.000000
v 9.938812 -16.768745 0.000000
v 9.938812 -18.297867 0.000000
v 9.938812 -19.826988 0.000000
v 9.938812 -21.356110 0.000000
v 9.938812 -22.885239 0.000000
v 11.570847 22.988461 0.000008
v 11.570847 21.459335 0.000008
v 11.570847 19.930214 0.000008
v 11.570847 18.401093 0.000000
v 11.570847 16.871967 0.000000
v 11.570847 15.342846 0.000000
v 11.570847 13.813721 0.000000
v 11.570847 12.284599 0.000000
v 11.570847 10.755478 0.000000
v 11.570847 9.226349 0.000000
v 11.570847 7.697227 0.000000
v 11.570847 6.168106 0.000000
v 11.570847 4.638985 0.000000
v 11.570847 3.109856 0.000000
v 11.570847 1.580734 0.000000
v 11.570847 0.051613 0.000000
v 11.570847 -1.477509 0.000000
v 11.570847 -3.006630 0.000000
v 11.570847 -4.535759 0.000000
v 11.570847 -6.064880 0.000000
v 11.570847 -7.594002 0.000000
v 11.570847 -9.123123 0.000000
v 11.570847 -10.652252 0.000000
v 11.570847 -12.181374 0.000000
v 11.570847 -13.710495 0.000000
v 11.570847 -15.239624 0.000000
v 11.570847 -16.768745 0.000000
v 11.570847 -18.297867 0.000000
v 11.570847 -19.826988 0.000000
v 11.570847 -21.356110 0.000000
v 11.570847 -22.885239 0.000000
v 13.202888 22.988461 0.000008
v 13.202888 21.459335 0.000008
v 13.202888 19.930214 0.000008
v 13.202888 18.401093 0.000000
v 13.202888 16.871967 0.000000
v 13.202888 15.342846 0.000000
v 13.202888 13.813721 0.000000
v 13.202888 12.284599 0.000000
v 13.202888 10.755478 0.000000
v 13.202888 9.226349 0.000000
v 13.202888 7.697227 0.000000
v 13.202888 6.168106 0.000000
v 13.202888 4.638985 0.000000
v 13.202888 3.109856 0.000000
v 13.202888 1.580734 0.000000
v 13.202888 0.051613 0.000000
v 13.202888 -1.477509 0.000000
v 13.202888 -3.006630 0.000000
v 13.202888 -4.535759 0.000000
v 13.202888 -6.064880 0.000000
v 13.202888 -7.594002 0.000000
v 13.202888 -9.123123 0.000000
v 13.202888 -10.652252 0.000000
v 13.202888 -12.181374 0.000000
v 13.202888 -13.710495 0.000000
v 13.202888 -15.239624 0.000000
v 13.202888 -16.768745 0.000000
v 13.202888 -18.297867 0.000000
v 13.202888 -19.826988 0.000000
v 13.202888 -21.356110 0.000000
v 13.202888 -22.885239 0.000000
v 14.834930 22.988461 0.000008
v 14.834930 21.459335 0.000008
v 14.834930 19.930214 0.000008
v 14.834930 18.401093 0.000000
v 14.834930 16.871967 0.000000
v 14.834930 15.342846 0.000000
v 14.834930 13.813721 0.000000
v 14.834930 12.284599 0.000000
v 14.834930 10.755478 0.000000
v 14.834930 9.226349 0.000000
v 14.834930 7.697227 0.000000
v 14.834930 6.168106 0.000000
v 14.834930 4.638985 0.000000
v 14.834930 3.109856 0.000000
v 14.834930 1.580734 0.000000
v 14.834930 0.051613 0.000000
v 14.834930 -1.477509 0.000000
v 14.834930 -3.006630 0.000000
v 14.834930 -4.535759 0.000000
v 14.834930 -6.064880 0.000000
v 14.834930 -7.594002 0.000000
v 14.834930 -9.123123 0.000000
v 14.834930 -10.652252 0.000000
v 14.834930 -12.181374 0.000000
v 14.834930 -13.710495 0.000000
v 14.834930 -15.239624 0.000000
v 14.834930 -16.768745 0.000000
v 14.834930 -18.297867 0.000000
v 14.834930 -19.826988 0.000000
v 14.834930 -21.356110 0.000000
v 16.466965 22.988461 0.000008
v 16.466965 21.459335 0.000008
v 16.466965 19.930214 0.000008
v 16.466965 18.401093 0.000000
v 16.466965 16.871967 0.000000
v 16.466965 15.342846 0.000000
v 16.466965 13.813721 0.000000
v 16.466965 12.284599 0.000000
v 16.466965 10.755478 0.000000
v 16.466965 9.226349 0.000000
v 16.466965 7.697227 0.000000
v 16.466965 6.168106 0.000000
v 16.466965 4.638985 0.000000
v 16.466965 3.109856 0.000000
v 16.466965 1.580734 0.000000
v 16.466965 0.051613 0.000000
v 16.466965 -1.477509 0.000000
v 16.466965 -3.006630 0.000000
v 16.466965 -4.535759 0.000000
v 16.466965 -6.064880 0.000000
v 16.466965 -7.594002 0.000000
v 16.466965 -9.123123 0.000000
v 16.466965 -10.652252 0.000000
v 16.466965 -12.181374 0.000000
v 16.466965 -13.710495 0.000000
v 16.466965 -15.239624 0.000000
v 16.466965 -16.768745 0.000000
v 16.466965 -18.297867 0.000000
v 16.466965 -19.826988 0.000000
v 16.466965 -21.356110 0.000000
v 18.099007 22.988461 0.000008
v 18.099007 21.459335 0.000008
v 18.099007 19.930214 0.000008
v 18.099007 18.401093 0.000000
v 18.099007 16.871967 0.000000
v 18.099007 15.342846 0.000000
v 18.099007 13.813721 0.000000
v 18.099007 12.284599 0.000000
v 18.099007 10.755478 0.000000
v 18.099007 9.226349 0.000000
v 18.099007 7.697227 0.000000
v 18.099007 6.168106 0.000000
v 18.099007 4.638985 0.000000
v 18.099007 3.109856 0.000000
v 18.099007 1.580734 0.000000
v 18.099007 0.051613 0.000000
v 18.099007 -1.477509 0.000000
v 18.099007 -3.006630 0.000000
v 18.099007 -4.535759 0.000000
v 18.099007 -6.064880 0.000000
v 18.099007 -7.594002 0.000000
v 18.099007 -9.123123 0.000000
v 18.099007 -10.652252 0.000000
v 18.099007 -12.181374 0.000000
v 18.099007 -13.710495 0.000000
v 18.099007 -15.239624 0.000000
v 18.099007 -16.768745 0.000000
v 18.099007 -18.297867 0.000000
v 18.099007 -19.826988 0.000000
v 18.099007 -21.356110 0.000000
v 19.731049 22.988461 0.000008
v 19.731049 21.459335 0.000008
v 19.731049 19.930214 0.000008
v 19.731049 18.401093 0.000000
v 19.731049 16.871967 0.000000
v 19.731049 15.342846 0.000000
v 19.731049 13.813721 0.000000
v 19.731049 12.284599 0.000000
v 19.731049 10.755478 0.000000
v 19.731049 9.226349 0.000000
v 19.731049 7.697227 0.000000
v 19.731049 6.168106 0.000000
v 19.731049 4.638985 0.000000
v 19.731049 3.109856 0.000000
v 19.731049 1.580734 0.000000
v 19.731049 0.051613 0.000000
v 19.731049 -1.477509 0.000000
v 19.731049 -3.006630 0.000000
v 19.731049 -4.535759 0.000000
v 19.731049 -6.064880 0.000000
v 19.731049 -7.594002 0.000000
v 19.731049 -9.123123 0.000000
v 19.731049 -10.652252 0.000000
v 19.731049 -12.181374 0.000000
v 19.731049 -13.710495 0.000000
v 19.731049 -15.239624 0.000000
v 19.731049 -16.768745 0.000000
v 19.731049 -18.297867 0.000000
v 19.731049 -19.826988 0.000000
v 19.731049 -21.356110 0.000000
v 21.363091 21.459335 0.000008
v 21.363091 19.930214 0.000008
v 21.363091 18.401093 0.000000
v 21.363091 16.871967 0.000000
v 21.363091 15.342846 0.000000
v 21.363091 13.813721 0.000000
v 21.363091 12.284599 0.000000
v 21.363091 10.755478 0.000000
v 21.363091 9.226349 0.000000
v 21.363091 7.697227 0.000000
v 21.363091 6.168106 0.000000
v 21.363091 4.638985 0.000000
v 21.363091 3.109856 0.000000
v 21.363091 1.580734 0.000000
v 21.363091 0.051613 0.000000
v 21.363091 -1.477509 0.000000
v 21.363091 -3.006630 0.000000
v 21.363091 -4.535759 0.000000
v 21.363091 -6.064880 0.000000
v 21.363091 -7.594002 0.000000
v 21.363091 -9.123123 0.000000
v 21.363091 -10.652252 0.000000
v 21.363091 -12.181374 0.000000
v 21.363091 -13.710495 0.000000
v 21.363091 -15.239624 0.000000
v 21.363091 -16.768745 0.000000
v 21.363091 -18.297867 0.000000
v 21.363091 -19.826988 0.000000
v 21.363091 -21.356110 0.000000
v 22.995125 21.459335 0.000008
v 22.995125 19.930214 0.000008
v 22.995125 18.401093 0.000000
v 22.995125 16.871967 0.000000
v 22.995125 15.342846 0.000000
v 22.995125 13.813721 0.000000
v 22.995125 12.284599 0.000000
v 22.995125 10.755478 0.000000
v 22.995125 9.226349 0.000000
v 22.995125 7.697227 0.000000
v 22.995125 6.168106 0.000000
v 22.995125 4.638985 0.000000
v 22.995125 3.109856 0.000000
v 22.995125 1.580734 0.000000
v 22.995125 0.051613 0.000000
v 22.995125 -1.477509 0.000000
v 22.995125 -3.006630 0.000000
v 22.995125 -4.535759 0.000000
v 22.995125 -6.064880 0.000000
v 22.995125 -7.594002 0.000000
v 22.995125 -9.123123 0.000000
v 22.995125 -10.652252 0.000000
v 22.995125 -12.181374 0.000000
v 22.995125 -13.710495 0.000000
v 22.995125 -15.239624 0.000000
v 22.995125 -16.768745 0.000000
v 22.995125 -18.297867 0.000000
v 22.995125 -19.826988 0.000000
v 22.995125 -21.356110 0.000000
v 24.627174 21.459335 0.000008
v 24.627174 19.930214 0.000008
v 24.627174 18.401093 0.000000
v 24.627174 16.871967 0.000000
v 24.627174 15.342846 0.000000
v 24.627174 13.813721 0.000000
v 24.627174 12.284599 0.000000
v 24.627174 10.755478 0.000000
v 24.627174 9.226349 0.000000
v 24.627174 7.697227 0.000000
v 24.627174 6.168106 0.000000
v 24.627174 4.638985 0.000000
v 24.627174 3.109856 0.000000
v 24.627174 1.580734 0.000000
v 24.627174 0.051613 0.000000
v 24.627174 -1.477509 0.000000
v 24.627174 -3.006630 0.000000
v 24.627174 -4.535759 0.000000
v 24.627174 -6.064880 0.000000
v 24.627174 -7.594002 0.000000
v 24.627174 -9.123123 0.000000
v 24.627174 -10.652252 0.000000
v 24.627174 -12.181374 0.000000
v 24.627174 -13.710495 0.000000
v 24.627174 -15.239624 0.000000
v 24.627174 -16.768745 0.000000
v 24.627174 -18.297867 0.000000
v 24.627174 -19.826988 0.000000
v 26.259209 19.930214 0.000008
v 26.259209 18.401093 0.000000
v 26.259209 16.871967 0.000000
v 26.259209 15.342846 0.000000
v 26.259209 13.813721 0.000000
v 26.259209 12.284599 0.000000
v 26.259209 10.755478 0.000000
v 26.259209 9.226349 0.000000
v 26.259209 7.697227 0.000000
v 26.259209 6.168106 0.000000
v 26.259209 4.638985 0.000000
v 26.259209 3.109856 0.000000
v 26.259209 1.580734 0.000000
v 26.259209 0.051613 0.000000
v 26.259209 -1.477509 0.000000
v 26.259209 -3.006630 0.000000
v 26.259209 -4.535759 0.000000
v 26.259209 -6.064880 0.000000
v 26.259209 -7.594002 0.000000
v 26.259209 -9.123123 0.000000
v 26.259209 -10.652252 0.000000
v 26.259209 -12.181374 0.000000
v 26.259209 -13.710495 0.000000
v 26.259209 -15.239624 0.000000
v 26.259209 -16.768745 0.000000
v 26.259209 -18.297867 0.000000
v 27.891243 19.930214 0.000008
v 27.891243 18.401093 0.000000
v 27.891243 16.871967 0.000000
v 27.891243 15.342846 0.000000
v 27.891243 13.813721 0.000000
v 27.891243 12.284599 0.000000
v 27.891243 10.755478 0.000000
v 27.891243 9.226349 0.000000
v 27.891243 7.697227 0.000000
v 27.891243 6.168106 0.000000
v 27.891243 4.638985 0.000000
v 27.891243 3.109856 0.000000
v 27.891243 1.580734 0.000000
v 27.891243 0.051613 0.000000
v 27.891243 -1.477509 0.000000
v 27.891243 -3.006630 0.000000
v 27.891243 -4.535759 0.000000
v 27.891243 -6.064880 0.000000
v 27.891243 -7.594002 0.000000
v 27.891243 -9.123123 0.000000
v 27.891243 -10.652252 0.000000
v 27.891243 -12.181374 0.000000
v 27.891243 -13.710495 0.000000
v 27.891243 -15.239624 0.000000
v 27.891243 -16.768745 0.000000
v 29.523293 19.930214 0.000008
v 29.523293 18.401093 0.000000
v 29.523293 16.871967 0.000000
v 29.523293 15.342846 0.000000
v 29.523293 13.813721 0.000000
v 29.523293 12.284599 0.000000
v 29.523293 10.755478 0.000000
v 29.523293 9.226349 0.000000
v 29.523293 7.697227 0.000000
v 29.523293 6.168106 0.000000
v 29.523293 4.638985 0.000000
v 29.523293 3.109856 0.000000
v 29.523293 1.580734 0.000000
v 29.523293 0.051613 0.000000
v 29.523293 -1.477509 0.000000
v 29.523293 -3.006630 0.000000
v 29.523293 -4.535759 0.000000
v 29.523293 -6.064880 0.000000
v 29.523293 -7.594002 0.000000
v 29.523293 -9.123123 0.000000
v 29.523293 -10.652252 0.000000
v 29.523293 -12.181374 0.000000
v 29.523293 -13.710495 0.000000
v 29.523293 -15.239624 0.000000
v 31.155327 18.401093 0.000000
v 31.155327 16.871967 0.000000
v 31.155327 15.342846 0.000000
v 31.155327 13.813721 0.000000
v 31.155327 12.284599 0.000000
v 31.155327 10.755478 0.000000
v 31.155327 9.226349 0.000000
v 31.155327 7.697227 0.000000
v 31.155327 6.168106 0.000000
v 31.155327 4.638985 0.000000
v 31.155327 3.109856 0.000000
v 31.155327 1.580734 0.000000
v 31.155327 0.051613 0.000000
v 31.155327 -1.477509 0.000000
v 31.155327 -3.006630 0.000000
v 31.155327 -4.535759 0.000000
v 31.155327 -6.064880 0.000000
v 31.155327 -7.594002 0.000000
v 31.155327 -9.123123 0.000000
v 31.155327 -10.652252 0.000000
v 31.155327 -12.181374 0.000000
v 31.155327 -13.710495 0.000000
v 32.787369 16.871967 0.000000
v 32.787369 15.342846 0.000000
v 32.787369 13.813721 0.000000
v 32.787369 12.284599 0.000000
v 32.787369 10.755478 0.000000
v 32.787369 9.226349 0.000000
v 32.787369 7.697227 0.000000
v 32.787369 6.168106 0.000000
v 32.787369 4.638985 0.000000
v 32.787369 3.109856 0.000000
v 32.787369 1.580734 0.000000
v 32.787369 0.051613 0.000000
v 32.787369 -1.477509 0.000000
v 32.787369 -3.006630 0.000000
v 32.787369 -4.535759 0.000000
v 32.787369 -6.064880 0.000000
v 32.787369 -7.594002 0.000000
v 32.787369 -9.123123 0.000000
v 32.787369 -10.652252 0.000000
v 32.787369 -12.181374 0.000000
v 34.419411 13.813721 0.000000
v 34.419411 12.284599 0.000000
v 34.419411 10.755478 0.000000
v 34.419411 9.226349 0.000000
v 34.419411 7.697227 0.000000
v 34.419411 6.168106 0.000000
v 34.419411 4.638985 0.000000
v 34.419411 3.109856 0.000000
v 34.419411 1.580734 0.000000
v 34.419411 0.051613 0.000000
v 34.419411 -1.477509 0.000000
v 34.419411 -3.006630 0.000000
v 34.419411 -4.535759 0.000000
v 34.419411 -6.064880 0.000000
v 34.419411 -7.594002 0.000000
v 34.419411 -9.123123 0.000000
v 34.419411 -10.652252 0.000000
v 36.051453 9.226349 0.000000
v 36.051453 7.697227 0.000000
v 36.051453 6.168106 0.000000
v 36.051453 4.638985 0.000000
v 36.051453 3.109856 0.000000
v 36.051453 1.580734 0.000000
v 36.051453 0.051613 0.000000
v 36.051453 -1.477509 0.000000
v 36.051453 -3.006630 0.000000
v 36.051453 -4.535759 0.000000
v 36.051453 -6.064880 0.000000
v 36.051453 -7.594002 0.000000
v 36.051453 -9.123123 0.000000
v 37.683487 6.168106 0.000000
v 37.683487 4.638985 0.000000
v 37.683487 3.109856 0.000000
v 37.683487 1.580734 0.000000
v 37.683487 0.051613 0.000000
v 37.683487 -1.477509 0.000000
v 37.683487 -3.006630 0.000000
v 37.683487 -4.535759 0.000000
s 0
f 1 2 3
f 4 3 5
f 6 3 4
f 6 4 7
f 8 9 10
f 11 12 13
f 12 14 15
f 10 16 17
f 18 19 20
f 18 21 19
f 18 22 21
f 23 4 24
f 5 2 25
f 1 16 2
f 26 10 27
f 16 28 2
f 28 29 2
f 18 30 22
f 31 32 33
f 34 35 36
f 12 15 37
f 38 34 36
f 39 17 16
f 11 40 41
f 18 42 43
f 32 8 44
f 16 9 28
f 44 45 32
f 9 16 10
f 11 46 12
f 27 17 36
f 47 48 49
f 38 36 39
f 50 51 52
f 29 53 50
f 18 54 55
f 27 44 26
f 36 17 39
f 29 56 25
f 25 56 57
f 58 38 39
f 18 59 60
f 41 61 24
f 46 14 12
f 4 49 24
f 13 37 62
f 13 40 11
f 10 26 8
f 18 63 64
f 48 25 57
f 28 31 53
f 18 65 63
f 18 66 65
f 18 67 66
f 18 68 67
f 61 41 40
f 31 28 9
f 10 17 27
f 36 35 27
f 69 50 53
f 47 4 5
f 9 8 31
f 53 31 70
f 58 1 3
f 51 50 71
f 50 69 71
f 57 46 48
f 29 25 2
f 11 72 46
f 72 41 48
f 48 46 72
f 12 37 13
f 56 29 52
f 58 39 1
f 18 73 68
f 40 62 74
f 18 75 73
f 3 2 5
f 49 41 24
f 52 29 50
f 62 76 74
f 25 48 47
f 28 53 29
f 18 77 78
f 45 79 32
f 14 52 80
f 32 31 8
f 18 81 77
f 49 48 41
f 1 39 16
f 47 5 25
f 56 52 14
f 4 47 49
f 11 41 72
f 82 83 84
f 82 85 83
f 13 62 40
f 82 86 85
f 87 88 89
f 87 90 88
f 56 14 57
f 15 80 91
f 80 15 14
f 44 8 26
f 87 92 90
f 62 37 76
f 87 93 92
f 87 94 95
f 57 14 46
f 87 96 97
f 87 98 96
f 61 40 74
f 91 37 15
f 87 99 98
f 45 44 27
f 87 100 101
f 87 102 100
f 35 33 79
f 87 103 104
f 31 105 106
f 106 70 31
f 51 80 52
f 107 108 109
f 110 76 111
f 112 53 70
f 71 69 113
f 87 114 115
f 87 116 117
f 87 118 119
f 61 120 24
f 87 121 118
f 87 122 121
f 87 123 124
f 87 125 123
f 87 126 125
f 87 127 126
f 87 128 129
f 87 130 131
f 87 132 133
f 134 135 136
f 87 137 132
f 87 138 137
f 136 135 139
f 105 31 33
f 87 140 141
f 87 142 140
f 87 143 142
f 69 112 144
f 87 145 146
f 147 148 149
f 150 151 152
f 153 154 108
f 112 106 155
f 147 156 148
f 147 157 156
f 147 158 157
f 147 159 158
f 147 160 159
f 147 161 160
f 147 162 161
f 147 163 164
f 6 7 139
f 147 165 166
f 147 167 168
f 6 135 152
f 32 79 33
f 27 79 45
f 109 108 154
f 151 58 3
f 169 170 35
f 147 171 167
f 109 172 170
f 173 136 139
f 135 6 139
f 151 3 6
f 147 174 175
f 33 35 170
f 105 172 154
f 109 170 169
f 151 38 58
f 170 172 105
f 176 105 154
f 6 152 151
f 109 169 107
f 153 108 107
f 135 176 152
f 147 177 174
f 178 179 180
f 178 181 179
f 173 106 136
f 182 173 139
f 23 182 7
f 183 112 155
f 178 184 185
f 178 186 184
f 178 187 188
f 178 189 187
f 170 105 33
f 35 79 27
f 34 38 150
f 178 190 189
f 144 191 192
f 153 107 169
f 172 109 154
f 154 153 176
f 176 134 105
f 169 35 153
f 153 152 176
f 135 134 176
f 178 193 194
f 178 195 193
f 196 197 198
f 153 35 34
f 38 151 150
f 134 106 105
f 70 106 112
f 69 53 112
f 4 23 7
f 173 155 106
f 192 113 144
f 196 199 197
f 183 155 191
f 7 182 139
f 196 200 199
f 196 201 200
f 196 202 201
f 196 203 202
f 196 204 205
f 196 206 207
f 134 136 106
f 113 69 144
f 196 208 206
f 183 191 144
f 183 144 112
f 196 209 208
f 182 23 210
f 196 211 209
f 23 24 120
f 120 212 23
f 196 213 211
f 196 214 213
f 37 111 76
f 196 215 214
f 196 216 215
f 196 217 216
f 218 219 220
f 218 221 222
f 218 223 221
f 218 224 223
f 218 225 224
f 226 227 228
f 226 229 227
f 226 230 231
f 226 232 230
f 226 233 232
f 226 234 235
f 236 74 237
f 74 76 237
f 152 153 150
f 34 150 153
f 226 238 239
f 226 240 238
f 226 241 240
f 226 242 241
f 226 243 242
f 226 244 243
f 226 245 244
f 226 246 245
f 226 247 246
f 226 248 247
f 226 249 248
f 250 251 252
f 250 253 251
f 250 254 253
f 250 255 254
f 250 256 257
f 250 258 256
f 250 259 260
f 250 261 262
f 263 264 265
f 263 266 264
f 263 267 266
f 263 268 267
f 263 269 268
f 263 270 269
f 263 271 272
f 263 273 271
f 263 274 275
f 263 276 274
f 263 277 278
f 263 279 277
f 263 280 279
f 263 281 282
f 263 283 281
f 263 284 283
f 263 285 286
f 263 287 285
f 263 288 287
f 263 289 290
f 263 291 289
f 263 292 291
f 263 293 292
f 263 294 293
f 295 296 297
f 295 298 299
f 295 300 298
f 295 301 300
f 295 302 301
f 295 303 302
f 295 304 305
f 295 306 304
f 295 307 306
f 295 308 307
f 295 309 308
f 295 310 311
f 295 312 310
f 295 313 314
f 295 315 316
f 295 317 315
f 295 318 317
f 295 319 318
f 295 320 321
f 295 322 323
f 295 324 322
f 295 325 324
f 326 327 328
f 326 329 330
f 331 332 333
f 331 334 332
f 331 335 334
f 331 336 335
f 331 337 338
f 331 339 340
f 331 341 339
f 331 342 341
f 331 343 342
f 331 344 343
f 331 345 346
f 331 347 348
f 331 349 347
f 331 350 349
f 331 351 350
f 331 352 351
f 331 353 352
f 331 354 355
f 331 356 354
f 331 357 356
f 331 358 357
f 331 359 358
f 331 360 361
f 331 362 363
f 331 364 362
f 331 365 364
f 366 367 368
f 366 369 370
f 366 371 372
f 366 373 371
f 366 374 373
f 366 375 374
f 366 376 375
f 377 378 379
f 377 380 378
f 377 381 380
f 377 382 381
f 377 383 384
f 377 385 386
f 377 387 385
f 377 388 387
f 377 389 390
f 377 391 389
f 377 392 391
f 377 393 394
f 377 395 393
f 377 396 397
f 377 398 396
f 399 400 401
f 399 402 403
f 399 404 402
f 399 405 404
f 399 406 405
f 399 407 406
f 399 408 407
f 399 409 408
f 399 410 409
f 411 412 413
f 411 414 412
f 295 415 320
f 295 316 313
f 295 314 312
f 295 311 309
f 295 305 303
f 295 299 296
f 263 416 288
f 263 286 417
f 263 282 280
f 263 278 276
f 263 275 273
f 250 262 418
f 250 260 258
f 250 257 255
f 250 252 419
f 250 419 420
f 250 420 421
f 226 231 422
f 226 422 229
f 226 228 423
f 178 424 195
f 178 194 190
f 178 188 186
f 178 185 425
f 178 425 426
f 178 426 181
f 147 168 165
f 147 166 163
f 87 146 143
f 87 141 138
f 87 133 130
f 87 131 128
f 87 129 127
f 87 124 122
f 87 119 116
f 87 117 114
f 87 115 103
f 87 101 99
f 87 97 94
f 18 60 54
f 18 43 30
f 427 428 429
f 427 429 430
f 411 431 432
f 433 434 435
f 433 435 436
f 433 437 438
f 433 439 440
f 441 442 443
f 441 443 444
f 441 445 446
f 441 447 448
f 441 448 449
f 441 449 450
f 441 451 452
f 453 454 455
f 453 456 457
f 453 458 459
f 453 460 461
f 453 462 463
f 411 464 465
f 411 465 414
f 411 432 464
f 399 466 467
f 399 467 400
f 377 468 392
f 377 390 388
f 377 386 383
f 377 384 382
f 366 370 469
f 366 469 367
f 331 361 359
f 331 355 470
f 331 470 471
f 331 471 353
f 331 348 345
f 331 346 344
f 331 340 337
f 331 338 336
f 463 472 473
f 463 474 475
f 463 462 476
f 453 477 478
f 399 403 466
f 399 413 410
f 399 411 413
f 453 479 477
f 453 452 480
f 453 441 452
f 82 427 212
f 210 481 433
f 463 191 155
f 218 236 237
f 237 226 482
f 237 482 218
f 326 483 329
f 326 331 483
f 326 330 327
f 71 113 331
f 196 236 218
f 295 71 326
f 226 235 233
f 113 366 331
f 295 321 319
f 218 482 226
f 76 226 237
f 74 236 196
f 196 205 203
f 178 196 198
f 196 484 204
f 295 328 325
f 295 326 328
f 295 323 415
f 331 363 360
f 331 333 483
f 226 421 249
f 226 250 421
f 226 239 234
f 326 71 331
f 82 212 120
f 196 61 74
f 263 297 294
f 263 295 297
f 263 290 416
f 71 295 51
f 226 76 110
f 178 198 424
f 196 220 217
f 196 218 220
f 196 207 484
f 218 423 225
f 218 226 423
f 218 222 219
f 250 418 259
f 441 485 486
f 120 61 147
f 110 250 226
f 18 55 42
f 433 440 487
f 441 433 485
f 433 438 439
f 441 488 445
f 366 113 377
f 147 180 177
f 147 178 180
f 147 175 489
f 263 417 284
f 263 272 270
f 250 263 265
f 250 265 261
f 331 368 365
f 331 366 368
f 453 463 173
f 427 490 481
f 87 149 145
f 427 20 491
f 427 18 20
f 427 492 493
f 18 78 75
f 18 64 59
f 433 441 453
f 433 494 495
f 433 490 494
f 433 496 434
f 191 411 377
f 411 497 431
f 82 120 87
f 147 61 196
f 147 164 162
f 87 147 149
f 147 489 171
f 377 394 468
f 427 481 210
f 210 433 182
f 377 113 192
f 18 427 82
f 490 498 499
f 490 427 498
f 427 430 498
f 82 89 86
f 82 87 89
f 18 84 81
f 18 82 84
f 196 178 147
f 463 411 191
f 295 80 51
f 366 379 376
f 366 377 379
f 366 372 369
f 377 401 398
f 377 399 401
f 377 397 395
f 23 427 210
f 87 95 93
f 87 104 102
f 463 155 173
f 173 182 453
f 80 295 263
f 111 263 110
f 377 411 399
f 481 490 433
f 427 23 212
f 263 91 80
f 453 182 433
f 411 500 501
f 411 463 500
f 411 502 497
f 192 191 377
f 147 87 120
f 37 263 111
f 250 110 263
f 263 37 91
f 427 491 503
f 427 503 504
f 427 504 492
f 427 493 428
f 490 499 505
f 490 505 506
f 490 506 507
f 490 507 508
f 490 508 509
f 490 509 494
f 433 495 510
f 433 510 511
f 433 511 496
f 433 436 437
f 433 487 512
f 433 512 513
f 433 513 514
f 433 514 485
f 441 486 515
f 441 515 516
f 441 516 517
f 441 517 442
f 441 444 518
f 441 518 519
f 441 519 488
f 441 446 520
f 441 520 521
f 441 521 522
f 441 522 447
f 441 450 523
f 441 523 451
f 453 480 524
f 453 524 525
f 453 525 526
f 453 526 479
f 453 478 527
f 453 527 528
f 453 528 529
f 453 529 454
f 453 455 530
f 453 530 456
f 453 457 531
f 453 531 532
f 453 532 533
f 453 533 458
f 453 459 460
f 453 461 462
f 463 476 534
f 463 534 474
f 463 475 535
f 463 535 536
f 463 536 472
f 463 473 500
f 411 501 537
f 411 537 538
f 411 538 502
f 446 539 520
f 521 540 522
f 450 541 523
f 444 542 518
f 542 543 544
f 542 544 539
f 539 544 545
f 539 545 540
f 540 545 546
f 540 546 541
f 541 546 547
f 524 547 525
f 527 525 528
f 516 543 517
f 543 548 549
f 543 549 544
f 544 549 550
f 544 550 545
f 545 550 551
f 545 551 546
f 546 551 552
f 546 552 547
f 455 552 530
f 454 547 455
f 486 548 515
f 548 553 554
f 548 554 549
f 549 554 555
f 549 555 550
f 550 555 556
f 550 556 551
f 551 556 557
f 551 557 552
f 552 557 558
f 456 552 558
f 513 553 514
f 553 559 560
f 553 560 554
f 554 560 561
f 554 561 555
f 555 561 562
f 555 562 556
f 556 562 563
f 556 563 557
f 557 563 564
f 557 564 558
f 532 564 533
f 67 565 66
f 66 566 65
f 566 565 567
f 566 567 568
f 568 567 569
f 568 569 570
f 570 569 571
f 21 571 19
f 487 559 512
f 559 572 573
f 559 573 560
f 560 573 574
f 560 574 561
f 561 574 575
f 561 575 562
f 562 575 576
f 562 576 563
f 563 576 577
f 563 577 564
f 460 564 577
f 458 564 459
f 75 578 73
f 578 579 580
f 578 580 565
f 565 580 581
f 565 581 567
f 567 581 582
f 567 582 569
f 569 582 583
f 569 583 571
f 571 583 584
f 491 584 503
f 503 585 504
f 572 586 587
f 572 587 573
f 573 587 588
f 573 588 574
f 574 588 589
f 574 589 575
f 575 589 590
f 575 590 576
f 576 590 591
f 576 591 577
f 476 591 534
f 462 577 476
f 81 579 77
f 579 592 593
f 579 593 580
f 580 593 594
f 580 594 581
f 581 594 595
f 581 595 582
f 582 595 596
f 582 596 583
f 583 596 597
f 583 597 584
f 584 597 598
f 584 598 585
f 585 598 599
f 585 599 600
f 600 599 601
f 508 601 509
f 495 586 510
f 586 602 603
f 586 603 587
f 587 603 604
f 587 604 588
f 588 604 605
f 588 605 589
f 589 605 606
f 589 606 590
f 590 606 607
f 590 607 591
f 591 607 608
f 474 591 608
f 85 592 83
f 592 609 610
f 592 610 593
f 593 610 611
f 593 611 594
f 594 611 612
f 594 612 595
f 595 612 613
f 595 613 596
f 596 613 614
f 596 614 597
f 597 614 615
f 597 615 598
f 598 615 616
f 598 616 599
f 599 616 617
f 599 617 601
f 601 617 618
f 601 618 602
f 602 618 619
f 602 619 603
f 603 619 620
f 603 620 604
f 604 620 621
f 604 621 605
f 605 621 622
f 605 622 606
f 606 622 623
f 606 623 607
f 607 623 624
f 607 624 608
f 472 608 624
f 90 609 88
f 609 625 610
f 610 625 626
f 610 626 611
f 611 626 627
f 611 627 612
f 612 627 628
f 612 628 613
f 613 628 629
f 613 629 614
f 614 629 630
f 614 630 615
f 615 630 631
f 615 631 616
f 616 631 632
f 616 632 617
f 617 632 633
f 617 633 618
f 618 633 634
f 618 634 619
f 619 634 635
f 619 635 620
f 620 635 636
f 620 636 621
f 621 636 637
f 621 637 622
f 622 637 638
f 622 638 623
f 623 638 639
f 623 639 624
f 624 639 640
f 500 624 640
f 501 641 537
f 409 642 408
f 407 643 406
f 405 644 404
f 93 625 92
f 625 645 626
f 626 645 646
f 626 646 627
f 627 646 647
f 627 647 628
f 628 647 648
f 628 648 629
f 629 648 649
f 629 649 630
f 630 649 650
f 630 650 631
f 631 650 651
f 631 651 632
f 632 651 652
f 632 652 633
f 633 652 653
f 633 653 634
f 634 653 654
f 634 654 635
f 635 654 655
f 635 655 636
f 636 655 656
f 636 656 637
f 637 656 657
f 637 657 638
f 638 657 658
f 638 658 639
f 639 658 659
f 639 659 640
f 640 659 660
f 640 660 641
f 641 660 661
f 641 661 662
f 662 661 663
f 662 663 664
f 664 663 665
f 664 665 666
f 666 665 667
f 666 667 642
f 642 667 668
f 642 668 643
f 643 668 669
f 643 669 644
f 398 669 396
f 401 644 398
f 97 645 94
f 645 670 646
f 646 670 671
f 646 671 647
f 647 671 672
f 647 672 648
f 648 672 673
f 648 673 649
f 649 673 674
f 649 674 650
f 650 674 675
f 650 675 651
f 651 675 676
f 651 676 652
f 652 676 677
f 652 677 653
f 653 677 678
f 653 678 654
f 654 678 679
f 654 679 655
f 655 679 680
f 655 680 656
f 656 680 681
f 656 681 657
f 657 681 682
f 657 682 658
f 658 682 683
f 658 683 659
f 659 683 684
f 659 684 660
f 660 684 685
f 660 685 661
f 661 685 686
f 661 686 663
f 663 686 687
f 663 687 665
f 665 687 688
f 665 688 667
f 667 688 689
f 667 689 668
f 668 689 690
f 668 690 669
f 395 690 393
f 397 669 395
f 99 670 98
f 670 691 671
f 671 691 692
f 671 692 672
f 672 692 693
f 672 693 673
f 673 693 694
f 673 694 674
f 674 694 695
f 674 695 675
f 675 695 696
f 675 696 676
f 676 696 697
f 676 697 677
f 677 697 698
f 677 698 678
f 678 698 699
f 678 699 679
f 679 699 700
f 679 700 680
f 680 700 701
f 680 701 681
f 681 701 702
f 681 702 682
f 682 702 703
f 682 703 683
f 683 703 704
f 683 704 684
f 684 704 705
f 684 705 685
f 685 705 706
f 685 706 686
f 686 706 707
f 686 707 687
f 687 707 708
f 687 708 688
f 688 708 709
f 688 709 689
f 689 709 710
f 689 710 690
f 690 710 711
f 394 690 711
f 104 691 102
f 691 712 692
f 692 712 713
f 692 713 693
f 693 713 714
f 693 714 694
f 694 714 715
f 694 715 695
f 695 715 716
f 695 716 696
f 696 716 717
f 696 717 697
f 697 717 718
f 697 718 698
f 698 718 719
f 698 719 699
f 699 719 720
f 699 720 700
f 700 720 721
f 700 721 701
f 701 721 722
f 701 722 702
f 702 722 723
f 702 723 703
f 703 723 724
f 703 724 704
f 704 724 725
f 704 725 705
f 705 725 726
f 705 726 706
f 706 726 727
f 706 727 707
f 707 727 728
f 707 728 708
f 708 728 729
f 708 729 709
f 709 729 730
f 709 730 710
f 710 730 731
f 710 731 711
f 390 711 731
f 121 732 118
f 733 732 734
f 733 734 712
f 712 734 735
f 712 735 713
f 713 735 736
f 713 736 714
f 714 736 737
f 714 737 715
f 715 737 738
f 715 738 716
f 716 738 739
f 716 739 717
f 717 739 740
f 717 740 718
f 718 740 741
f 718 741 719
f 719 741 742
f 719 742 720
f 720 742 743
f 720 743 721
f 721 743 744
f 721 744 722
f 722 744 745
f 722 745 723
f 723 745 746
f 723 746 724
f 724 746 747
f 724 747 725
f 725 747 748
f 725 748 726
f 726 748 749
f 726 749 727
f 727 749 750
f 727 750 728
f 728 750 751
f 728 751 729
f 729 751 752
f 729 752 730
f 730 752 753
f 730 753 731
f 387 753 385
f 126 754 125
f 125 755 123
f 755 754 756
f 755 756 732
f 732 756 757
f 732 757 734
f 734 757 758
f 734 758 735
f 735 758 759
f 735 759 736
f 736 759 760
f 736 760 737
f 737 760 761
f 737 761 738
f 738 761 762
f 738 762 739
f 739 762 763
f 739 763 740
f 740 763 764
f 740 764 741
f 741 764 765
f 741 765 742
f 742 765 766
f 742 766 743
f 743 766 767
f 743 767 744
f 744 767 768
f 744 768 745
f 745 768 769
f 745 769 746
f 746 769 770
f 746 770 747
f 747 770 771
f 747 771 748
f 748 771 772
f 748 772 749
f 749 772 773
f 749 773 750
f 750 773 774
f 750 774 751
f 751 774 775
f 751 775 752
f 752 775 776
f 752 776 753
f 384 753 776
f 386 753 383
f 777 778 779
f 777 779 754
f 754 779 780
f 754 780 756
f 756 780 781
f 756 781 757
f 757 781 782
f 757 782 758
f 758 782 783
f 758 783 759
f 759 783 784
f 759 784 760
f 760 784 785
f 760 785 761
f 761 785 786
f 761 786 762
f 762 786 787
f 762 787 763
f 763 787 788
f 763 788 764
f 764 788 789
f 764 789 765
f 765 789 790
f 765 790 766
f 766 790 791
f 766 791 767
f 767 791 792
f 767 792 768
f 768 792 793
f 768 793 769
f 769 793 794
f 769 794 770
f 770 794 795
f 770 795 771
f 771 795 796
f 771 796 772
f 772 796 797
f 772 797 773
f 773 797 798
f 773 798 774
f 774 798 799
f 774 799 775
f 775 799 800
f 775 800 776
f 776 800 801
f 382 801 381
f 142 802 140
f 803 802 804
f 803 804 778
f 778 804 805
f 778 805 779
f 779 805 806
f 779 806 780
f 780 806 807
f 780 807 781
f 781 807 808
f 781 808 782
f 782 808 809
f 782 809 783
f 783 809 810
f 783 810 784
f 784 810 811
f 784 811 785
f 785 811 812
f 785 812 786
f 786 812 813
f 786 813 787
f 787 813 814
f 787 814 788
f 788 814 815
f 788 815 789
f 789 815 816
f 789 816 790
f 790 816 817
f 790 817 791
f 791 817 818
f 791 818 792
f 792 818 819
f 792 819 793
f 793 819 820
f 793 820 794
f 794 820 821
f 794 821 795
f 795 821 822
f 795 822 796
f 796 822 823
f 796 823 797
f 797 823 824
f 797 824 798
f 798 824 825
f 798 825 799
f 799 825 826
f 799 826 800
f 800 826 827
f 800 827 801
f 379 801 827
f 158 828 157
f 156 829 148
f 830 829 831
f 830 831 802
f 802 831 832
f 802 832 804
f 804 832 833
f 804 833 805
f 805 833 834
f 805 834 806
f 806 834 835
f 806 835 807
f 807 835 836
f 807 836 808
f 808 836 837
f 808 837 809
f 809 837 838
f 809 838 810
f 810 838 839
f 810 839 811
f 811 839 840
f 811 840 812
f 812 840 841
f 812 841 813
f 813 841 842
f 813 842 814
f 814 842 843
f 814 843 815
f 815 843 844
f 815 844 816
f 816 844 845
f 816 845 817
f 817 845 846
f 817 846 818
f 818 846 847
f 818 847 819
f 819 847 848
f 819 848 820
f 820 848 849
f 820 849 821
f 821 849 850
f 821 850 822
f 822 850 851
f 822 851 823
f 823 851 852
f 823 852 824
f 824 852 853
f 824 853 825
f 825 853 854
f 825 854 826
f 826 854 855
f 826 855 827
f 827 855 856
f 376 856 375
f 162 857 161
f 161 858 160
f 858 857 859
f 858 859 828
f 828 859 860
f 828 860 829
f 829 860 861
f 829 861 831
f 831 861 862
f 831 862 832
f 832 862 863
f 832 863 833
f 833 863 864
f 833 864 834
f 834 864 865
f 834 865 835
f 835 865 866
f 835 866 836
f 836 866 867
f 836 867 837
f 837 867 868
f 837 868 838
f 838 868 869
f 838 869 839
f 839 869 870
f 839 870 840
f 840 870 871
f 840 871 841
f 841 871 872
f 841 872 842
f 842 872 873
f 842 873 843
f 843 873 874
f 843 874 844
f 844 874 875
f 844 875 845
f 845 875 876
f 845 876 846
f 846 876 877
f 846 877 847
f 847 877 878
f 847 878 848
f 848 878 879
f 848 879 849
f 849 879 880
f 849 880 850
f 850 880 881
f 850 881 851
f 851 881 882
f 851 882 852
f 852 882 883
f 852 883 853
f 853 883 884
f 853 884 854
f 854 884 885
f 854 885 855
f 855 885 886
f 855 886 856
f 856 886 887
f 374 887 373
f 171 888 167
f 889 888 890
f 889 890 857
f 857 890 891
f 857 891 859
f 859 891 892
f 859 892 860
f 860 892 893
f 860 893 861
f 861 893 894
f 861 894 862
f 862 894 895
f 862 895 863
f 863 895 896
f 863 896 864
f 864 896 897
f 864 897 865
f 865 897 898
f 865 898 866
f 866 898 899
f 866 899 867
f 867 899 900
f 867 900 868
f 868 900 901
f 868 901 869
f 869 901 902
f 869 902 870
f 870 902 903
f 870 903 871
f 871 903 904
f 871 904 872
f 872 904 905
f 872 905 873
f 873 905 906
f 873 906 874
f 874 906 907
f 874 907 875
f 875 907 908
f 875 908 876
f 876 908 909
f 876 909 877
f 877 909 910
f 877 910 878
f 878 910 911
f 878 911 879
f 879 911 912
f 879 912 880
f 880 912 913
f 880 913 881
f 881 913 914
f 881 914 882
f 882 914 915
f 882 915 883
f 883 915 916
f 883 916 884
f 884 916 917
f 884 917 885
f 885 917 918
f 885 918 886
f 886 918 919
f 886 919 887
f 370 887 919
f 372 887 369
f 920 921 922
f 920 922 888
f 888 922 923
f 888 923 890
f 890 923 924
f 890 924 891
f 891 924 925
f 891 925 892
f 892 925 926
f 892 926 893
f 893 926 927
f 893 927 894
f 894 927 928
f 894 928 895
f 895 928 929
f 895 929 896
f 896 929 930
f 896 930 897
f 897 930 931
f 897 931 898
f 898 931 932
f 898 932 899
f 899 932 933
f 899 933 900
f 900 933 934
f 900 934 901
f 901 934 935
f 901 935 902
f 902 935 936
f 902 936 903
f 903 936 937
f 903 937 904
f 904 937 938
f 904 938 905
f 905 938 939
f 905 939 906
f 906 939 940
f 906 940 907
f 907 940 941
f 907 941 908
f 908 941 942
f 908 942 909
f 909 942 943
f 909 943 910
f 910 943 944
f 910 944 911
f 911 944 945
f 911 945 912
f 912 945 946
f 912 946 913
f 913 946 947
f 913 947 914
f 914 947 948
f 914 948 915
f 915 948 949
f 915 949 916
f 916 949 950
f 916 950 917
f 917 950 951
f 917 951 918
f 918 951 952
f 918 952 919
f 365 952 364
f 368 919 365
f 921 953 954
f 921 954 922
f 922 954 955
f 922 955 923
f 923 955 956
f 923 956 924
f 924 956 957
f 924 957 925
f 925 957 958
f 925 958 926
f 926 958 959
f 926 959 927
f 927 959 960
f 927 960 928
f 928 960 961
f 928 961 929
f 929 961 962
f 929 962 930
f 930 962 963
f 930 963 931
f 931 963 964
f 931 964 932
f 932 964 965
f 932 965 933
f 933 965 966
f 933 966 934
f 934 966 967
f 934 967 935
f 935 967 968
f 935 968 936
f 936 968 969
f 936 969 937
f 937 969 970
f 937 970 938
f 938 970 971
f 938 971 939
f 939 971 972
f 939 972 940
f 940 972 973
f 940 973 941
f 941 973 974
f 941 974 942
f 942 974 975
f 942 975 943
f 943 975 976
f 943 976 944
f 944 976 977
f 944 977 945
f 945 977 978
f 945 978 946
f 946 978 979
f 946 979 947
f 947 979 980
f 947 980 948
f 948 980 981
f 948 981 949
f 949 981 982
f 949 982 950
f 950 982 983
f 950 983 951
f 951 983 984
f 951 984 952
f 363 952 984
f 953 985 986
f 953 986 954
f 954 986 987
f 954 987 955
f 955 987 988
f 955 988 956
f 956 988 989
f 956 989 957
f 957 989 990
f 957 990 958
f 958 990 991
f 958 991 959
f 959 991 992
f 959 992 960
f 960 992 993
f 960 993 961
f 961 993 994
f 961 994 962
f 962 994 995
f 962 995 963
f 963 995 996
f 963 996 964
f 964 996 997
f 964 997 965
f 965 997 998
f 965 998 966
f 966 998 999
f 966 999 967
f 967 999 1000
f 967 1000 968
f 968 1000 1001
f 968 1001 969
f 969 1001 1002
f 969 1002 970
f 970 1002 1003
f 970 1003 971
f 971 1003 1004
f 971 1004 972
f 972 1004 1005
f 972 1005 973
f 973 1005 1006
f 973 1006 974
f 974 1006 1007
f 974 1007 975
f 975 1007 1008
f 975 1008 976
f 976 1008 1009
f 976 1009 977
f 977 1009 1010
f 977 1010 978
f 978 1010 1011
f 978 1011 979
f 979 1011 1012
f 979 1012 980
f 980 1012 1013
f 980 1013 981
f 981 1013 1014
f 981 1014 982
f 982 1014 1015
f 982 1015 983
f 983 1015 1016
f 983 1016 984
f 359 1016 358
f 361 984 359
f 194 985 190
f 985 1017 986
f 986 1017 1018
f 986 1018 987
f 987 1018 1019
f 987 1019 988
f 988 1019 1020
f 988 1020 989
f 989 1020 1021
f 989 1021 990
f 990 1021 1022
f 990 1022 991
f 991 1022 1023
f 991 1023 992
f 992 1023 1024
f 992 1024 993
f 993 1024 1025
f 993 1025 994
f 994 1025 1026
f 994 1026 995
f 995 1026 1027
f 995 1027 996
f 996 1027 1028
f 996 1028 997
f 997 1028 1029
f 997 1029 998
f 998 1029 1030
f 998 1030 999
f 999 1030 1031
f 999 1031 1000
f 1000 1031 1032
f 1000 1032 1001
f 1001 1032 1033
f 1001 1033 1002
f 1002 1033 1034
f 1002 1034 1003
f 1003 1034 1035
f 1003 1035 1004
f 1004 1035 1036
f 1004 1036 1005
f 1005 1036 1037
f 1005 1037 1006
f 1006 1037 1038
f 1006 1038 1007
f 1007 1038 1039
f 1007 1039 1008
f 1008 1039 1040
f 1008 1040 1009
f 1009 1040 1041
f 1009 1041 1010
f 1010 1041 1042
f 1010 1042 1011
f 1011 1042 1043
f 1011 1043 1012
f 1012 1043 1044
f 1012 1044 1013
f 1013 1044 1045
f 1013 1045 1014
f 1014 1045 1046
f 1014 1046 1015
f 1015 1046 1047
f 1015 1047 1016
f 357 1047 356
f 195 1017 193
f 1017 1048 1049
f 1017 1049 1018
f 1018 1049 1050
f 1018 1050 1019
f 1019 1050 1051
f 1019 1051 1020
f 1020 1051 1052
f 1020 1052 1021
f 1021 1052 1053
f 1021 1053 1022
f 1022 1053 1054
f 1022 1054 1023
f 1023 1054 1055
f 1023 1055 1024
f 1024 1055 1056
f 1024 1056 1025
f 1025 1056 1057
f 1025 1057 1026
f 1026 1057 1058
f 1026 1058 1027
f 1027 1058 1059
f 1027 1059 1028
f 1028 1059 1060
f 1028 1060 1029
f 1029 1060 1061
f 1029 1061 1030
f 1030 1061 1062
f 1030 1062 1031
f 1031 1062 1063
f 1031 1063 1032
f 1032 1063 1064
f 1032 1064 1033
f 1033 1064 1065
f 1033 1065 1034
f 1034 1065 1066
f 1034 1066 1035
f 1035 1066 1067
f 1035 1067 1036
f 1036 1067 1068
f 1036 1068 1037
f 1037 1068 1069
f 1037 1069 1038
f 1038 1069 1070
f 1038 1070 1039
f 1039 1070 1071
f 1039 1071 1040
f 1040 1071 1072
f 1040 1072 1041
f 1041 1072 1073
f 1041 1073 1042
f 1042 1073 1074
f 1042 1074 1043
f 1043 1074 1075
f 1043 1075 1044
f 1044 1075 1076
f 1044 1076 1045
f 1045 1076 1077
f 1045 1077 1046
f 1046 1077 1078
f 1046 1078 1047
f 355 1047 1078
f 199 1048 197
f 1048 1079 1080
f 1048 1080 1049
f 1049 1080 1081
f 1049 1081 1050
f 1050 1081 1082
f 1050 1082 1051
f 1051 1082 1083
f 1051 1083 1052
f 1052 1083 1084
f 1052 1084 1053
f 1053 1084 1085
f 1053 1085 1054
f 1054 1085 1086
f 1054 1086 1055
f 1055 1086 1087
f 1055 1087 1056
f 1056 1087 1088
f 1056 1088 1057
f 1057 1088 1089
f 1057 1089 1058
f 1058 1089 1090
f 1058 1090 1059
f 1059 1090 1091
f 1059 1091 1060
f 1060 1091 1092
f 1060 1092 1061
f 1061 1092 1093
f 1061 1093 1062
f 1062 1093 1094
f 1062 1094 1063
f 1063 1094 1095
f 1063 1095 1064
f 1064 1095 1096
f 1064 1096 1065
f 1065 1096 1097
f 1065 1097 1066
f 1066 1097 1098
f 1066 1098 1067
f 1067 1098 1099
f 1067 1099 1068
f 1068 1099 1100
f 1068 1100 1069
f 1069 1100 1101
f 1069 1101 1070
f 1070 1101 1102
f 1070 1102 1071
f 1071 1102 1103
f 1071 1103 1072
f 1072 1103 1104
f 1072 1104 1073
f 1073 1104 1105
f 1073 1105 1074
f 1074 1105 1106
f 1074 1106 1075
f 1075 1106 1107
f 1075 1107 1076
f 1076 1107 1108
f 1076 1108 1077
f 350 1108 349
f 351 1077 350
f 201 1079 200
f 1079 1109 1110
f 1079 1110 1080
f 1080 1110 1111
f 1080 1111 1081
f 1081 1111 1112
f 1081 1112 1082
f 1082 1112 1113
f 1082 1113 1083
f 1083 1113 1114
f 1083 1114 1084
f 1084 1114 1115
f 1084 1115 1085
f 1085 1115 1116
f 1085 1116 1086
f 1086 1116 1117
f 1086 1117 1087
f 1087 1117 1118
f 1087 1118 1088
f 1088 1118 1119
f 1088 1119 1089
f 1089 1119 1120
f 1089 1120 1090
f 1090 1120 1121
f 1090 1121 1091
f 1091 1121 1122
f 1091 1122 1092
f 1092 1122 1123
f 1092 1123 1093
f 1093 1123 1124
f 1093 1124 1094
f 1094 1124 1125
f 1094 1125 1095
f 1095 1125 1126
f 1095 1126 1096
f 1096 1126 1127
f 1096 1127 1097
f 1097 1127 1128
f 1097 1128 1098
f 1098 1128 1129
f 1098 1129 1099
f 1099 1129 1130
f 1099 1130 1100
f 1100 1130 1131
f 1100 1131 1101
f 1101 1131 1132
f 1101 1132 1102
f 1102 1132 1133
f 1102 1133 1103
f 1103 1133 1134
f 1103 1134 1104
f 1104 1134 1135
f 1104 1135 1105
f 1105 1135 1136
f 1105 1136 1106
f 1106 1136 1137
f 1106 1137 1107
f 1107 1137 1138
f 1107 1138 1108
f 348 1108 1138
f 203 1109 202
f 1109 1139 1140
f 1109 1140 1110
f 1110 1140 1141
f 1110 1141 1111
f 1111 1141 1142
f 1111 1142 1112
f 1112 1142 1143
f 1112 1143 1113
f 1113 1143 1144
f 1113 1144 1114
f 1114 1144 1145
f 1114 1145 1115
f 1115 1145 1146
f 1115 1146 1116
f 1116 1146 1147
f 1116 1147 1117
f 1117 1147 1148
f 1117 1148 1118
f 1118 1148 1149
f 1118 1149 1119
f 1119 1149 1150
f 1119 1150 1120
f 1120 1150 1151
f 1120 1151 1121
f 1121 1151 1152
f 1121 1152 1122
f 1122 1152 1153
f 1122 1153 1123
f 1123 1153 1154
f 1123 1154 1124
f 1124 1154 1155
f 1124 1155 1125
f 1125 1155 1156
f 1125 1156 1126
f 1126 1156 1157
f 1126 1157 1127
f 1127 1157 1158
f 1127 1158 1128
f 1128 1158 1159
f 1128 1159 1129
f 1129 1159 1160
f 1129 1160 1130
f 1130 1160 1161
f 1130 1161 1131
f 1131 1161 1162
f 1131 1162 1132
f 1132 1162 1163
f 1132 1163 1133
f 1133 1163 1164
f 1133 1164 1134
f 1134 1164 1165
f 1134 1165 1135
f 1135 1165 1166
f 1135 1166 1136
f 1136 1166 1167
f 1136 1167 1137
f 1137 1167 1168
f 1137 1168 1138
f 344 1168 343
f 346 1138 344
f 1139 1169 1170
f 1139 1170 1140
f 1140 1170 1171
f 1140 1171 1141
f 1141 1171 1172
f 1141 1172 1142
f 1142 1172 1173
f 1142 1173 1143
f 1143 1173 1174
f 1143 1174 1144
f 1144 1174 1175
f 1144 1175 1145
f 1145 1175 1176
f 1145 1176 1146
f 1146 1176 1177
f 1146 1177 1147
f 1147 1177 1178
f 1147 1178 1148
f 1148 1178 1179
f 1148 1179 1149
f 1149 1179 1180
f 1149 1180 1150
f 1150 1180 1181
f 1150 1181 1151
f 1151 1181 1182
f 1151 1182 1152
f 1152 1182 1183
f 1152 1183 1153
f 1153 1183 1184
f 1153 1184 1154
f 1154 1184 1185
f 1154 1185 1155
f 1155 1185 1186
f 1155 1186 1156
f 1156 1186 1187
f 1156 1187 1157
f 1157 1187 1188
f 1157 1188 1158
f 1158 1188 1189
f 1158 1189 1159
f 1159 1189 1190
f 1159 1190 1160
f 1160 1190 1191
f 1160 1191 1161
f 1161 1191 1192
f 1161 1192 1162
f 1162 1192 1193
f 1162 1193 1163
f 1163 1193 1194
f 1163 1194 1164
f 1164 1194 1195
f 1164 1195 1165
f 1165 1195 1196
f 1165 1196 1166
f 1166 1196 1197
f 1166 1197 1167
f 1167 1197 1198
f 1167 1198 1168
f 342 1198 341
f 211 1169 209
f 1169 1199 1170
f 1170 1199 1200
f 1170 1200 1171
f 1171 1200 1201
f 1171 1201 1172
f 1172 1201 1202
f 1172 1202 1173
f 1173 1202 1203
f 1173 1203 1174
f 1174 1203 1204
f 1174 1204 1175
f 1175 1204 1205
f 1175 1205 1176
f 1176 1205 1206
f 1176 1206 1177
f 1177 1206 1207
f 1177 1207 1178
f 1178 1207 1208
f 1178 1208 1179
f 1179 1208 1209
f 1179 1209 1180
f 1180 1209 1210
f 1180 1210 1181
f 1181 1210 1211
f 1181 1211 1182
f 1182 1211 1212
f 1182 1212 1183
f 1183 1212 1213
f 1183 1213 1184
f 1184 1213 1214
f 1184 1214 1185
f 1185 1214 1215
f 1185 1215 1186
f 1186 1215 1216
f 1186 1216 1187
f 1187 1216 1217
f 1187 1217 1188
f 1188 1217 1218
f 1188 1218 1189
f 1189 1218 1219
f 1189 1219 1190
f 1190 1219 1220
f 1190 1220 1191
f 1191 1220 1221
f 1191 1221 1192
f 1192 1221 1222
f 1192 1222 1193
f 1193 1222 1223
f 1193 1223 1194
f 1194 1223 1224
f 1194 1224 1195
f 1195 1224 1225
f 1195 1225 1196
f 1196 1225 1226
f 1196 1226 1197
f 1197 1226 1227
f 1197 1227 1198
f 340 1198 1227
f 213 1199 211
f 1199 1228 1229
f 1199 1229 1200
f 1200 1229 1230
f 1200 1230 1201
f 1201 1230 1231
f 1201 1231 1202
f 1202 1231 1232
f 1202 1232 1203
f 1203 1232 1233
f 1203 1233 1204
f 1204 1233 1234
f 1204 1234 1205
f 1205 1234 1235
f 1205 1235 1206
f 1206 1235 1236
f 1206 1236 1207
f 1207 1236 1237
f 1207 1237 1208
f 1208 1237 1238
f 1208 1238 1209
f 1209 1238 1239
f 1209 1239 1210
f 1210 1239 1240
f 1210 1240 1211
f 1211 1240 1241
f 1211 1241 1212
f 1212 1241 1242
f 1212 1242 1213
f 1213 1242 1243
f 1213 1243 1214
f 1214 1243 1244
f 1214 1244 1215
f 1215 1244 1245
f 1215 1245 1216
f 1216 1245 1246
f 1216 1246 1217
f 1217 1246 1247
f 1217 1247 1218
f 1218 1247 1248
f 1218 1248 1219
f 1219 1248 1249
f 1219 1249 1220
f 1220 1249 1250
f 1220 1250 1221
f 1221 1250 1251
f 1221 1251 1222
f 1222 1251 1252
f 1222 1252 1223
f 1223 1252 1253
f 1223 1253 1224
f 1224 1253 1254
f 1224 1254 1225
f 1225 1254 1255
f 1225 1255 1226
f 1226 1255 1256
f 1226 1256 1227
f 336 1256 335
f 338 1227 336
f 215 1228 214
f 1228 1257 1258
f 1228 1258 1229
f 1229 1258 1259
f 1229 1259 1230
f 1230 1259 1260
f 1230 1260 1231
f 1231 1260 1261
f 1231 1261 1232
f 1232 1261 1262
f 1232 1262 1233
f 1233 1262 1263
f 1233 1263 1234
f 1234 1263 1264
f 1234 1264 1235
f 1235 1264 1265
f 1235 1265 1236
f 1236 1265 1266
f 1236 1266 1237
f 1237 1266 1267
f 1237 1267 1238
f 1238 1267 1268
f 1238 1268 1239
f 1239 1268 1269
f 1239 1269 1240
f 1240 1269 1270
f 1240 1270 1241
f 1241 1270 1271
f 1241 1271 1242
f 1242 1271 1272
f 1242 1272 1243
f 1243 1272 1273
f 1243 1273 1244
f 1244 1273 1274
f 1244 1274 1245
f 1245 1274 1275
f 1245 1275 1246
f 1246 1275 1276
f 1246 1276 1247
f 1247 1276 1277
f 1247 1277 1248
f 1248 1277 1278
f 1248 1278 1249
f 1249 1278 1279
f 1249 1279 1250
f 1250 1279 1280
f 1250 1280 1251
f 1251 1280 1281
f 1251 1281 1252
f 1252 1281 1282
f 1252 1282 1253
f 1253 1282 1283
f 1253 1283 1254
f 1254 1283 1284
f 1254 1284 1255
f 330 1255 1284
f 483 333 1255
f 220 1257 217
f 1257 1285 1258
f 1258 1285 1286
f 1258 1286 1259
f 1259 1286 1287
f 1259 1287 1260
f 1260 1287 1288
f 1260 1288 1261
f 1261 1288 1289
f 1261 1289 1262
f 1262 1289 1290
f 1262 1290 1263
f 1263 1290 1291
f 1263 1291 1264
f 1264 1291 1292
f 1264 1292 1265
f 1265 1292 1293
f 1265 1293 1266
f 1266 1293 1294
f 1266 1294 1267
f 1267 1294 1295
f 1267 1295 1268
f 1268 1295 1296
f 1268 1296 1269
f 1269 1296 1297
f 1269 1297 1270
f 1270 1297 1298
f 1270 1298 1271
f 1271 1298 1299
f 1271 1299 1272
f 1272 1299 1300
f 1272 1300 1273
f 1273 1300 1301
f 1273 1301 1274
f 1274 1301 1302
f 1274 1302 1275
f 1275 1302 1303
f 1275 1303 1276
f 1276 1303 1304
f 1276 1304 1277
f 1277 1304 1305
f 1277 1305 1278
f 1278 1305 1306
f 1278 1306 1279
f 1279 1306 1307
f 1279 1307 1280
f 1280 1307 1308
f 1280 1308 1281
f 1281 1308 1309
f 1281 1309 1282
f 1282 1309 1310
f 1282 1310 1283
f 323 1283 1310
f 324 1283 322
f 328 1284 325
f 1285 1311 1312
f 1285 1312 1286
f 1286 1312 1313
f 1286 1313 1287
f 1287 1313 1314
f 1287 1314 1288
f 1288 1314 1315
f 1288 1315 1289
f 1289 1315 1316
f 1289 1316 1290
f 1290 1316 1317
f 1290 1317 1291
f 1291 1317 1318
f 1291 1318 1292
f 1292 1318 1319
f 1292 1319 1293
f 1293 1319 1320
f 1293 1320 1294
f 1294 1320 1321
f 1294 1321 1295
f 1295 1321 1322
f 1295 1322 1296
f 1296 1322 1323
f 1296 1323 1297
f 1297 1323 1324
f 1297 1324 1298
f 1298 1324 1325
f 1298 1325 1299
f 1299 1325 1326
f 1299 1326 1300
f 1300 1326 1327
f 1300 1327 1301
f 1301 1327 1328
f 1301 1328 1302
f 1302 1328 1329
f 1302 1329 1303
f 1303 1329 1330
f 1303 1330 1304
f 1304 1330 1331
f 1304 1331 1305
f 1305 1331 1332
f 1305 1332 1306
f 1306 1332 1333
f 1306 1333 1307
f 1307 1333 1334
f 1307 1334 1308
f 1308 1334 1335
f 1308 1335 1309
f 317 1335 315
f 318 1309 317
f 321 1310 319
f 423 228 225
f 224 1311 223
f 1311 1336 1337
f 1311 1337 1312
f 1312 1337 1338
f 1312 1338 1313
f 1313 1338 1339
f 1313 1339 1314
f 1314 1339 1340
f 1314 1340 1315
f 1315 1340 1341
f 1315 1341 1316
f 1316 1341 1342
f 1316 1342 1317
f 1317 1342 1343
f 1317 1343 1318
f 1318 1343 1344
f 1318 1344 1319
f 1319 1344 1345
f 1319 1345 1320
f 1320 1345 1346
f 1320 1346 1321
f 1321 1346 1347
f 1321 1347 1322
f 1322 1347 1348
f 1322 1348 1323
f 1323 1348 1349
f 1323 1349 1324
f 1324 1349 1350
f 1324 1350 1325
f 1325 1350 1351
f 1325 1351 1326
f 1326 1351 1352
f 1326 1352 1327
f 1327 1352 1353
f 1327 1353 1328
f 1328 1353 1354
f 1328 1354 1329
f 1329 1354 1355
f 1329 1355 1330
f 1330 1355 1356
f 1330 1356 1331
f 1331 1356 1357
f 1331 1357 1332
f 1332 1357 1358
f 1332 1358 1333
f 1333 1358 1359
f 1333 1359 1334
f 311 1334 1359
f 312 1334 310
f 314 1335 312
f 316 1335 313
f 422 231 1336
f 1336 1360 1337
f 1337 1360 1361
f 1337 1361 1338
f 1338 1361 1362
f 1338 1362 1339
f 1339 1362 1363
f 1339 1363 1340
f 1340 1363 1364
f 1340 1364 1341
f 1341 1364 1365
f 1341 1365 1342
f 1342 1365 1366
f 1342 1366 1343
f 1343 1366 1367
f 1343 1367 1344
f 1344 1367 1368
f 1344 1368 1345
f 1345 1368 1369
f 1345 1369 1346
f 1346 1369 1370
f 1346 1370 1347
f 1347 1370 1371
f 1347 1371 1348
f 1348 1371 1372
f 1348 1372 1349
f 1349 1372 1373
f 1349 1373 1350
f 1350 1373 1374
f 1350 1374 1351
f 1351 1374 1375
f 1351 1375 1352
f 1352 1375 1376
f 1352 1376 1353
f 1353 1376 1377
f 1353 1377 1354
f 1354 1377 1378
f 1354 1378 1355
f 1355 1378 1379
f 1355 1379 1356
f 1356 1379 1380
f 1356 1380 1357
f 1357 1380 1381
f 1357 1381 1358
f 306 1381 304
f 307 1358 306
f 233 1360 232
f 1360 1382 1361
f 1361 1382 1383
f 1361 1383 1362
f 1362 1383 1384
f 1362 1384 1363
f 1363 1384 1385
f 1363 1385 1364
f 1364 1385 1386
f 1364 1386 1365
f 1365 1386 1387
f 1365 1387 1366
f 1366 1387 1388
f 1366 1388 1367
f 1367 1388 1389
f 1367 1389 1368
f 1368 1389 1390
f 1368 1390 1369
f 1369 1390 1391
f 1369 1391 1370
f 1370 1391 1392
f 1370 1392 1371
f 1371 1392 1393
f 1371 1393 1372
f 1372 1393 1394
f 1372 1394 1373
f 1373 1394 1395
f 1373 1395 1374
f 1374 1395 1396
f 1374 1396 1375
f 1375 1396 1397
f 1375 1397 1376
f 1376 1397 1398
f 1376 1398 1377
f 1377 1398 1399
f 1377 1399 1378
f 1378 1399 1400
f 1378 1400 1379
f 1379 1400 1401
f 1379 1401 1380
f 301 1401 300
f 302 1380 301
f 305 1381 303
f 239 1382 234
f 240 1382 238
f 241 1383 240
f 1383 1402 1384
f 1384 1402 1403
f 1384 1403 1385
f 1385 1403 1404
f 1385 1404 1386
f 1386 1404 1405
f 1386 1405 1387
f 1387 1405 1406
f 1387 1406 1388
f 1388 1406 1407
f 1388 1407 1389
f 1389 1407 1408
f 1389 1408 1390
f 1390 1408 1409
f 1390 1409 1391
f 1391 1409 1410
f 1391 1410 1392
f 1392 1410 1411
f 1392 1411 1393
f 1393 1411 1412
f 1393 1412 1394
f 1394 1412 1413
f 1394 1413 1395
f 1395 1413 1414
f 1395 1414 1396
f 1396 1414 1415
f 1396 1415 1397
f 1397 1415 1416
f 1397 1416 1398
f 1398 1416 1417
f 1398 1417 1399
f 1399 1417 1418
f 1399 1418 1400
f 294 1418 293
f 297 1400 294
f 299 1401 296
f 244 1402 243
f 246 1403 245
f 247 1404 246
f 1404 1419 1405
f 1405 1419 1420
f 1405 1420 1406
f 1406 1420 1421
f 1406 1421 1407
f 1407 1421 1422
f 1407 1422 1408
f 1408 1422 1423
f 1408 1423 1409
f 1409 1423 1424
f 1409 1424 1410
f 1410 1424 1425
f 1410 1425 1411
f 1411 1425 1426
f 1411 1426 1412
f 1412 1426 1427
f 1412 1427 1413
f 1413 1427 1428
f 1413 1428 1414
f 1414 1428 1429
f 1414 1429 1415
f 1415 1429 1430
f 1415 1430 1416
f 1416 1430 1431
f 1416 1431 1417
f 290 1417 1431
f 291 1417 289
f 419 252 1419
f 253 1420 251
f 1420 1432 1421
f 1421 1432 1433
f 1421 1433 1422
f 1422 1433 1434
f 1422 1434 1423
f 1423 1434 1435
f 1423 1435 1424
f 1424 1435 1436
f 1424 1436 1425
f 1425 1436 1437
f 1425 1437 1426
f 1426 1437 1438
f 1426 1438 1427
f 1427 1438 1439
f 1427 1439 1428
f 279 1439 277
f 280 1428 279
f 282 1429 280
f 283 1429 281
f 417 286 1430
f 257 1432 255
f 260 1433 258
f 418 262 1434
f 265 1434 261
f 267 1435 266
f 269 1436 268
f 272 1437 270
f 275 1438 273
f 278 1439 276
f 497 641 662
f 497 662 431
f 464 662 664
f 465 464 664
f 465 664 414
f 413 664 666
f 413 666 410
f 466 403 644
f 467 466 644
f 467 644 400
f 468 394 711
f 468 711 392
f 390 731 388
f 384 776 382
f 379 827 376
f 469 370 919
f 469 919 367
f 363 984 360
f 470 355 1078
f 471 470 1078
f 471 1078 353
f 348 1138 345
f 340 1227 337
f 333 1256 1255
f 483 1255 329
f 330 1284 327
f 415 323 1310
f 415 1310 320
f 311 1359 309
f 297 1401 1400
f 416 290 1431
f 416 1431 288
f 286 1431 1430
f 417 1430 284
f 275 1439 1438
f 272 1438 1437
f 265 1435 1434
f 418 1434 259
f 260 1434 1433
f 257 1433 1432
f 252 1420 1419
f 420 419 1419
f 421 420 1419
f 421 1419 249
f 235 1382 233
f 231 1360 1336
f 422 1336 229
f 225 1336 224
f 222 1311 1285
f 222 1285 219
f 220 1285 1257
f 207 1169 1139
f 484 207 1139
f 484 1139 204
f 205 1139 203
f 424 198 1048
f 424 1048 195
f 194 1017 985
f 188 985 953
f 188 953 186
f 185 953 921
f 425 185 921
f 426 425 921
f 426 921 181
f 180 921 920
f 180 920 177
f 489 175 920
f 489 920 171
f 168 888 889
f 168 889 165
f 166 889 163
f 164 889 162
f 149 829 830
f 149 830 145
f 146 830 143
f 141 802 803
f 141 803 138
f 133 803 778
f 133 778 130
f 131 778 777
f 131 777 128
f 129 777 127
f 124 755 122
f 119 732 733
f 119 733 116
f 117 733 114
f 115 733 103
f 104 733 712
f 104 712 691
f 101 691 99
f 97 670 645
f 95 645 93
f 89 609 86
f 84 592 81
f 78 579 75
f 64 566 59
f 60 566 568
f 60 568 54
f 55 568 42
f 43 568 570
f 43 570 30
f 20 571 491
f 492 585 493
f 429 428 585
f 430 429 585
f 430 585 600
f 498 430 600
f 498 600 499
f 494 601 602
f 494 602 495
f 496 586 572
f 434 496 572
f 435 434 572
f 435 572 436
f 438 437 572
f 439 438 572
f 440 439 572
f 440 572 487
f 485 553 486
f 443 442 543
f 443 543 444
f 445 488 542
f 445 542 446
f 448 447 540
f 449 448 540
f 449 540 450
f 452 451 541
f 452 541 480
f 477 479 478
f 456 558 457
f 460 577 461
f 474 608 475
f 472 624 473
f 500 640 501
f 502 641 497
f 431 662 432
f 464 432 662
f 414 664 412
f 413 412 664
f 410 666 409
f 642 409 666
f 408 642 407
f 643 407 642
f 406 643 405
f 644 405 643
f 404 644 402
f 403 402 644
f 401 400 644
f 669 398 644
f 397 396 669
f 690 395 669
f 394 393 690
f 392 711 391
f 391 711 389
f 390 389 711
f 388 731 387
f 753 387 731
f 386 385 753
f 384 383 753
f 801 382 776
f 381 801 380
f 380 801 378
f 379 378 801
f 856 376 827
f 375 856 374
f 887 374 856
f 373 887 371
f 372 371 887
f 370 369 887
f 368 367 919
f 952 365 919
f 364 952 362
f 363 362 952
f 361 360 984
f 1016 359 984
f 358 1016 357
f 1047 357 1016
f 356 1047 354
f 355 354 1047
f 353 1078 352
f 352 1078 351
f 1077 351 1078
f 1108 350 1077
f 349 1108 347
f 348 347 1108
f 346 345 1138
f 1168 344 1138
f 343 1168 342
f 1198 342 1168
f 341 1198 339
f 340 339 1198
f 338 337 1227
f 1256 336 1227
f 335 1256 334
f 334 1256 332
f 333 332 1256
f 330 329 1255
f 328 327 1284
f 325 1284 324
f 1283 324 1284
f 323 322 1283
f 321 320 1310
f 319 1310 318
f 1309 318 1310
f 1335 317 1309
f 316 315 1335
f 314 313 1335
f 1334 312 1335
f 311 310 1334
f 309 1359 308
f 308 1359 307
f 1358 307 1359
f 1381 306 1358
f 305 304 1381
f 303 1381 302
f 1380 302 1381
f 1401 301 1380
f 300 1401 298
f 299 298 1401
f 297 296 1401
f 1418 294 1400
f 293 1418 292
f 292 1418 291
f 1417 291 1418
f 290 289 1417
f 288 1431 287
f 287 1431 285
f 286 285 1431
f 284 1430 283
f 1429 283 1430
f 282 281 1429
f 1428 280 1429
f 1439 279 1428
f 278 277 1439
f 276 1439 274
f 275 274 1439
f 273 1438 271
f 272 271 1438
f 270 1437 269
f 1436 269 1437
f 268 1436 267
f 1435 267 1436
f 266 1435 264
f 265 264 1435
f 262 261 1434
f 260 259 1434
f 258 1433 256
f 257 256 1433
f 255 1432 254
f 254 1432 253
f 1420 253 1432
f 252 251 1420
f 249 1419 248
f 248 1419 247
f 1404 247 1419
f 1403 246 1404
f 245 1403 244
f 1402 244 1403
f 243 1402 242
f 242 1402 241
f 1383 241 1402
f 1382 240 1383
f 239 238 1382
f 235 234 1382
f 1360 233 1382
f 232 1360 230
f 231 230 1360
f 229 1336 227
f 228 227 1336
f 1336 225 228
f 1311 224 1336
f 223 1311 221
f 222 221 1311
f 220 219 1285
f 217 1257 216
f 216 1257 215
f 1228 215 1257
f 214 1228 213
f 1199 213 1228
f 1169 211 1199
f 209 1169 208
f 208 1169 206
f 207 206 1169
f 205 204 1139
f 1109 203 1139
f 202 1109 201
f 1079 201 1109
f 200 1079 199
f 1048 199 1079
f 198 197 1048
f 1017 195 1048
f 194 193 1017
f 190 985 189
f 189 985 187
f 188 187 985
f 186 953 184
f 185 184 953
f 181 921 179
f 180 179 921
f 177 920 174
f 175 174 920
f 888 171 920
f 168 167 888
f 166 165 889
f 164 163 889
f 857 162 889
f 858 161 857
f 160 858 159
f 159 858 158
f 828 158 858
f 157 828 156
f 829 156 828
f 149 148 829
f 146 145 830
f 143 830 142
f 802 142 830
f 141 140 802
f 138 803 137
f 137 803 132
f 133 132 803
f 131 130 778
f 129 128 777
f 127 777 126
f 754 126 777
f 755 125 754
f 124 123 755
f 122 755 121
f 732 121 755
f 119 118 732
f 117 116 733
f 115 114 733
f 104 103 733
f 102 691 100
f 101 100 691
f 670 99 691
f 98 670 96
f 97 96 670
f 95 94 645
f 625 93 645
f 92 625 90
f 609 90 625
f 89 88 609
f 86 609 85
f 592 85 609
f 84 83 592
f 579 81 592
f 78 77 579
f 578 75 579
f 73 578 68
f 68 578 67
f 565 67 578
f 566 66 565
f 65 566 63
f 64 63 566
f 60 59 566
f 55 54 568
f 43 42 568
f 30 570 22
f 22 570 21
f 571 21 570
f 20 19 571
f 584 491 571
f 585 503 584
f 492 504 585
f 428 493 585
f 499 600 505
f 505 600 506
f 506 600 507
f 507 600 508
f 601 508 600
f 494 509 601
f 586 495 602
f 510 586 511
f 496 511 586
f 437 436 572
f 559 487 572
f 512 559 513
f 553 513 559
f 485 514 553
f 548 486 553
f 515 548 516
f 543 516 548
f 442 517 543
f 542 444 543
f 518 542 519
f 488 519 542
f 539 446 542
f 520 539 521
f 540 521 539
f 447 522 540
f 541 450 540
f 451 523 541
f 480 541 524
f 547 524 541
f 528 547 529
f 478 526 527
f 526 478 479
f 525 527 526
f 547 528 525
f 454 529 547
f 552 455 547
f 456 530 552
f 457 558 531
f 531 558 532
f 564 532 558
f 458 533 564
f 460 459 564
f 462 461 577
f 591 476 577
f 474 534 591
f 475 608 535
f 535 608 536
f 472 536 608
f 500 473 624
f 641 501 640
f 537 641 538
f 502 538 641
